<svg width="45" height="45" viewBox="0 0 45 45" fill="none" xmlns="http://www.w3.org/2000/svg">
<path d="M8.32506 8.32506C8.58592 8.06382 8.89574 7.85657 9.23677 7.71516C9.5778 7.57376 9.94337 7.50098 10.3126 7.50098C10.6817 7.50098 11.0473 7.57376 11.3883 7.71516C11.7294 7.85657 12.0392 8.06382 12.3001 8.32506L22.5001 18.5213L32.7001 8.32506C32.9611 8.06405 33.2709 7.85702 33.6119 7.71576C33.9529 7.57451 34.3184 7.50181 34.6876 7.50181C35.0567 7.50181 35.4222 7.57451 35.7632 7.71576C36.1042 7.85701 36.4141 8.06405 36.6751 8.32506C36.9361 8.58606 37.1431 8.89591 37.2843 9.23693C37.4256 9.57794 37.4983 9.94344 37.4983 10.3126C37.4983 10.6817 37.4256 11.0472 37.2843 11.3882C37.1431 11.7292 36.9361 12.0391 36.6751 12.3001L26.4788 22.5001L36.6751 32.7001C37.2022 33.2272 37.4983 33.9421 37.4983 34.6876C37.4983 35.433 37.2022 36.1479 36.6751 36.6751C36.1479 37.2022 35.433 37.4983 34.6876 37.4983C33.9421 37.4983 33.2272 37.2022 32.7001 36.6751L22.5001 26.4788L12.3001 36.6751C11.7729 37.2022 11.058 37.4983 10.3126 37.4983C9.5671 37.4983 8.85217 37.2022 8.32506 36.6751C7.79794 36.1479 7.50181 35.433 7.50181 34.6876C7.50181 33.9421 7.79794 33.2272 8.32506 32.7001L18.5213 22.5001L8.32506 12.3001C8.06382 12.0392 7.85657 11.7294 7.71516 11.3883C7.57376 11.0473 7.50098 10.6817 7.50098 10.3126C7.50098 9.94337 7.57376 9.5778 7.71516 9.23677C7.85657 8.89574 8.06382 8.58592 8.32506 8.32506Z" fill="#ED5B5B"/>
</svg>
