<svg width="30" height="30" viewBox="0 0 30 30" fill="none" xmlns="http://www.w3.org/2000/svg">
<path fill-rule="evenodd" clip-rule="evenodd" d="M20.3398 12.84C20.3398 14.166 19.8131 15.4378 18.8754 16.3755C17.9377 17.3132 16.6659 17.84 15.3398 17.84C14.0138 17.84 12.742 17.3132 11.8043 16.3755C10.8666 15.4378 10.3398 14.166 10.3398 12.84C10.3398 11.5139 10.8666 10.2421 11.8043 9.30443C12.742 8.36675 14.0138 7.83997 15.3398 7.83997C16.6659 7.83997 17.9377 8.36675 18.8754 9.30443C19.8131 10.2421 20.3398 11.5139 20.3398 12.84ZM17.8398 12.84C17.8398 13.503 17.5765 14.1389 17.1076 14.6077C16.6388 15.0766 16.0029 15.34 15.3398 15.34C14.6768 15.34 14.0409 15.0766 13.5721 14.6077C13.1032 14.1389 12.8398 13.503 12.8398 12.84C12.8398 12.1769 13.1032 11.541 13.5721 11.0722C14.0409 10.6034 14.6768 10.34 15.3398 10.34C16.0029 10.34 16.6388 10.6034 17.1076 11.0722C17.5765 11.541 17.8398 12.1769 17.8398 12.84Z" fill="#212121"/>
<path fill-rule="evenodd" clip-rule="evenodd" d="M7.24251 20.6475C5.63105 19.1132 4.51076 17.1355 4.0233 14.9645C3.53584 12.7935 3.7031 10.5267 4.50393 8.45081C5.30477 6.37487 6.7032 4.58303 8.5224 3.30188C10.3416 2.02073 12.4999 1.3078 14.7242 1.25326C16.9486 1.19872 19.1392 1.80501 21.019 2.99546C22.8988 4.18591 24.3834 5.90705 25.285 7.94124C26.1866 9.97543 26.4648 12.2313 26.0843 14.4236C25.7038 16.6159 24.6818 18.6461 23.1475 20.2575L15.39 28.405L7.24251 20.6475ZM21.3375 18.5338L15.3038 24.8713L8.96626 18.8375C7.71296 17.6442 6.84167 16.106 6.46256 14.4175C6.08345 12.729 6.21355 10.9659 6.8364 9.35136C7.45925 7.73678 8.54688 6.34316 9.96176 5.3467C11.3766 4.35025 13.0552 3.79572 14.7852 3.75325C16.5153 3.71077 18.2191 4.18225 19.6811 5.10806C21.1432 6.03388 22.2979 7.37245 22.9993 8.95452C23.7006 10.5366 23.917 12.2911 23.6213 13.9962C23.3255 15.7013 22.5307 17.2803 21.3375 18.5338Z" fill="#212121"/>
</svg>
