<svg width="641" height="96" viewBox="0 0 641 96" fill="none" xmlns="http://www.w3.org/2000/svg">
<path d="M34.9375 52.0625C35.1042 52.1875 35.5833 52.25 36.375 52.25C37.1667 52.25 37.7708 51.9375 38.1875 51.3125C38.6042 50.6875 38.8125 49.6667 38.8125 48.25V43.5C38.8125 42 38.625 40.9375 38.25 40.3125C37.9167 39.6458 37.3333 39.3125 36.5 39.3125C35.7083 39.3125 35.1667 39.3958 34.875 39.5625C34.9167 39.7708 34.9375 40.125 34.9375 40.625V52.0625ZM36.5 80.3125V89.875C34.6667 91.4167 32.0833 92.6875 28.75 93.6875C25.4167 94.6458 21.9375 95.125 18.3125 95.125C13.1458 95.125 8.91667 94.125 5.625 92.125C1.875 89.8333 0 86.5208 0 82.1875V22.8125C0 21.4792 0.895833 20.1458 2.6875 18.8125C4.52083 17.4792 7.04167 16.2708 10.25 15.1875C17.125 12.8542 24.9792 11.6875 33.8125 11.6875C46.0208 11.6875 55.75 14.7292 63 20.8125C70.25 26.8958 73.875 35.0833 73.875 45.375C73.875 55.625 70.6042 63.6042 64.0625 69.3125C57.7708 74.7292 49.0417 77.4375 37.875 77.4375C35.3333 77.4375 32.6042 77.1458 29.6875 76.5625C26.8125 75.9375 24.875 75.3958 23.875 74.9375C23.5417 75.2708 23.375 75.7292 23.375 76.3125C23.375 78.4375 27.75 79.7708 36.5 80.3125ZM109 37.75V62.5C109 68.7083 110.5 72.75 113.5 74.625C113.542 74.8333 113.562 75.2292 113.562 75.8125V76.9375C113.562 83.0625 111.896 87.6667 108.562 90.75C105.479 93.6667 101.354 95.125 96.1875 95.125C91.0625 95.125 86.8333 93.6667 83.5 90.75C79.2917 87.0417 77.1875 81.625 77.1875 74.5V33.875C77.9375 33.3333 78.75 32.8958 79.625 32.5625C80.5 32.2292 81.4167 31.8125 82.375 31.3125C80.5833 30.3958 78.9583 28.8125 77.5 26.5625C76.0417 24.2708 75.3125 21.6042 75.3125 18.5625C75.3125 13.3125 77.0417 9.02083 80.5 5.6875C83.9583 2.35417 88.1875 0.6875 93.1875 0.6875C98.2292 0.6875 102.438 2.39583 105.812 5.8125C109.229 9.1875 110.938 13.4375 110.938 18.5625C110.938 22.6875 109.646 26.3125 107.062 29.4375C104.479 32.5208 101.333 34.4583 97.625 35.25C97.625 36.8333 98.2292 37.625 99.4375 37.625C101.562 37.625 103.729 36.7917 105.938 35.125C107.604 36.4167 108.625 37.2917 109 37.75ZM149.938 95.9375C139.104 95.9375 130.458 92.6042 124 85.9375C117.583 79.2292 114.375 70.25 114.375 59C114.375 47.75 118.021 38.8542 125.312 32.3125C131.812 26.4792 139.938 23.5625 149.688 23.5625C158.354 23.5625 165.542 25.7083 171.25 30C176.958 34.25 179.812 40.0417 179.812 47.375C179.812 52.4583 178.229 56.6042 175.062 59.8125C171.938 62.9792 167.812 64.5625 162.688 64.5625C158.521 64.5625 155.042 63.4583 152.25 61.25C149.5 59 147.875 56.0833 147.375 52.5C145.542 52.5 144.625 53.1667 144.625 54.5C144.625 57.5417 146.125 60.3333 149.125 62.875C152.583 65.875 156.875 67.375 162 67.375C167.167 67.375 171.438 66.2708 174.812 64.0625C176.896 67.2708 177.938 71.1667 177.938 75.75C177.938 81.0833 175.646 85.6458 171.062 89.4375C165.812 93.7708 158.771 95.9375 149.938 95.9375ZM214 70.5L211 71.8125C211 74.6042 211.542 77.5833 212.625 80.75C213.542 83.75 214.812 86.4167 216.438 88.75C212.312 93 206.583 95.125 199.25 95.125C195.042 95.125 191.396 94.0208 188.312 91.8125C184.729 89.3125 182.938 86 182.938 81.875V8.9375C184.938 7.77083 187.333 6.8125 190.125 6.0625C192.958 5.3125 195.812 4.9375 198.688 4.9375C203.479 4.9375 207.438 5.875 210.562 7.75C214.104 9.95833 215.875 13.125 215.875 17.25V23.875C215.875 29.4167 214.896 34.8333 212.938 40.125C212.562 40.6667 211.896 41.4583 210.938 42.5C209.979 43.5 209.208 44.4167 208.625 45.25C208.083 46.0833 207.812 46.8125 207.812 47.4375C207.812 48.0208 208.312 48.5625 209.312 49.0625C212.562 46.0208 215.104 42.7083 216.938 39.125C218.812 35.5417 220.521 30.7917 222.062 24.875C222.604 24.7917 223.229 24.6875 223.938 24.5625C224.646 24.4375 225.812 24.25 227.438 24C229.104 23.7083 230.271 23.5625 230.938 23.5625C237.354 23.5625 242.354 25.0417 245.938 28C249.521 30.9167 251.312 34.9375 251.312 40.0625C251.312 45.1875 249.688 49.5833 246.438 53.25C243.438 56.5417 239.542 59.0208 234.75 60.6875C238.583 62.9375 243.417 64.5417 249.25 65.5C251.5 69.5833 252.625 73.9375 252.625 78.5625C252.625 83.1458 251.167 86.9792 248.25 90.0625C245 93.4375 240.5 95.125 234.75 95.125C229.042 95.125 224.333 92.9375 220.625 88.5625C216.958 84.1458 214.75 78.125 214 70.5ZM287.25 18.5625V62.5C287.25 68.7083 288.75 72.75 291.75 74.625C291.792 74.8333 291.812 75.2292 291.812 75.8125V76.9375C291.812 82.8958 290.292 87.4167 287.25 90.5C284.25 93.5833 279.979 95.125 274.438 95.125C268.896 95.125 264.5 93.5833 261.25 90.5C257.375 86.8333 255.438 81.2917 255.438 73.875V8.9375C259.812 6.27083 264.812 4.9375 270.438 4.9375C276.104 4.9375 280.312 6.14583 283.062 8.5625C285.854 10.9375 287.25 14.2708 287.25 18.5625ZM330.188 95.9375C318.646 95.9375 309.542 92.7292 302.875 86.3125C296.042 79.8542 292.625 71.0208 292.625 59.8125C292.625 48.5625 296.146 39.6458 303.188 33.0625C309.688 26.9375 317.917 23.875 327.875 23.875C337.833 23.875 345.812 26.625 351.812 32.125C357.854 37.5833 360.875 44.3125 360.875 52.3125C360.875 59.4375 358.396 64.8125 353.438 68.4375C348.854 71.8542 342.604 73.5625 334.688 73.5625C328.771 73.5625 323.771 72.3333 319.688 69.875C319.354 70.125 319.188 70.5833 319.188 71.25C319.188 72.5 320.833 73.6458 324.125 74.6875C327.417 75.8125 331.146 76.375 335.312 76.375C339.521 76.375 343.333 75.8542 346.75 74.8125C350.208 73.7292 352.979 72.4583 355.062 71C356.062 71.875 356.854 73.5 357.438 75.875C358.062 78.2083 358.375 80.3542 358.375 82.3125C358.375 84.2292 358.188 85.9375 357.812 87.4375C354.562 90.1875 351.229 92.1458 347.812 93.3125C342.979 95.0625 337.104 95.9375 330.188 95.9375ZM329.375 53.625C331.458 53.625 332.5 52.8333 332.5 51.25C332.5 49.75 331.396 49 329.188 49C326.979 49 325.708 50.1875 325.375 52.5625C326.542 53.2708 327.875 53.625 329.375 53.625ZM429.062 52.0625C429.229 52.1875 429.708 52.25 430.5 52.25C431.292 52.25 431.896 51.9375 432.312 51.3125C432.729 50.6875 432.938 49.6667 432.938 48.25V43.5C432.938 42 432.75 40.9375 432.375 40.3125C432.042 39.6458 431.458 39.3125 430.625 39.3125C429.833 39.3125 429.292 39.3958 429 39.5625C429.042 39.7708 429.062 40.125 429.062 40.625V52.0625ZM430.625 80.3125V89.875C428.792 91.4167 426.208 92.6875 422.875 93.6875C419.542 94.6458 416.062 95.125 412.438 95.125C407.271 95.125 403.042 94.125 399.75 92.125C396 89.8333 394.125 86.5208 394.125 82.1875V22.8125C394.125 21.4792 395.021 20.1458 396.812 18.8125C398.646 17.4792 401.167 16.2708 404.375 15.1875C411.25 12.8542 419.104 11.6875 427.938 11.6875C440.146 11.6875 449.875 14.7292 457.125 20.8125C464.375 26.8958 468 35.0833 468 45.375C468 55.625 464.729 63.6042 458.188 69.3125C451.896 74.7292 443.167 77.4375 432 77.4375C429.458 77.4375 426.729 77.1458 423.812 76.5625C420.938 75.9375 419 75.3958 418 74.9375C417.667 75.2708 417.5 75.7292 417.5 76.3125C417.5 78.4375 421.875 79.7708 430.625 80.3125ZM531.062 63.0625C531.062 66.0625 531.396 68.4792 532.062 70.3125C532.729 72.1458 533.896 73.5833 535.562 74.625C535.604 74.8333 535.625 75.2292 535.625 75.8125V76.9375C535.625 82.8542 533.833 87.4583 530.25 90.75C527.083 93.6667 523.167 95.125 518.5 95.125C515.333 95.125 512.438 94.375 509.812 92.875C507.188 91.375 505.312 89.2083 504.188 86.375C502.771 86.375 502.062 87.0625 502.062 88.4375C502.062 89.6042 502.792 90.9167 504.25 92.375C501.542 94.2083 497.458 95.125 492 95.125C484.292 95.125 478.125 93.0417 473.5 88.875C468.917 84.6667 466.625 78.8125 466.625 71.3125C466.625 63.7708 469.062 57.9375 473.938 53.8125C478.396 50.1042 484.167 48.25 491.25 48.25C493.667 48.25 496 48.4167 498.25 48.75C499.75 49.0417 500.562 49.2083 500.688 49.25C500.812 48.8333 500.875 48.4792 500.875 48.1875C500.875 47.1042 499.958 46.375 498.125 46C496.292 45.625 493.896 45.4375 490.938 45.4375C484.646 45.4375 479.271 46.7083 474.812 49.25C472.771 45.7917 471.75 41.4167 471.75 36.125C471.75 33.125 472.125 30.8958 472.875 29.4375C475.875 28.0625 479.688 26.8542 484.312 25.8125C488.938 24.7292 493.812 24.1875 498.938 24.1875C509.521 24.1875 517.521 26.5 522.938 31.125C528.354 35.75 531.062 42.3125 531.062 50.8125V63.0625ZM498.625 66.125C496.875 66.125 496 66.9167 496 68.5C496 70 497.021 70.75 499.062 70.75C500.479 70.75 501.521 70.4167 502.188 69.75C502.854 69.0417 503.188 67.8333 503.188 66.125C503.188 66.125 501.667 66.125 498.625 66.125ZM570 18.5625V62.5C570 68.7083 571.5 72.75 574.5 74.625C574.542 74.8333 574.562 75.2292 574.562 75.8125V76.9375C574.562 82.8958 573.042 87.4167 570 90.5C567 93.5833 562.729 95.125 557.188 95.125C551.646 95.125 547.25 93.5833 544 90.5C540.125 86.8333 538.188 81.2917 538.188 73.875V8.9375C542.562 6.27083 547.562 4.9375 553.188 4.9375C558.854 4.9375 563.062 6.14583 565.812 8.5625C568.604 10.9375 570 14.2708 570 18.5625ZM610.562 45C609.479 45.3333 608.938 45.9792 608.938 46.9375V47.25C608.938 47.4583 608.958 47.5833 609 47.625C609.458 47.5833 610.062 47.5625 610.812 47.5625H612.312C617.062 47.5625 621.5 48.2917 625.625 49.75C629.792 51.1667 633.188 53.4583 635.812 56.625C638.729 60.2083 640.188 64.7292 640.188 70.1875C640.188 78.6875 637.25 85.1042 631.375 89.4375C625.5 93.7708 617.646 95.9375 607.812 95.9375C597.979 95.9375 590.271 94.3125 584.688 91.0625C579.146 87.8125 576.375 83.0417 576.375 76.75C576.375 74.4167 576.875 72.2917 577.875 70.375C578.875 68.4167 580 67.0417 581.25 66.25C583.542 68.1667 586.854 69.8333 591.188 71.25C595.562 72.625 600.188 73.3125 605.062 73.3125C607.021 73.3125 608 72.7708 608 71.6875C608 71.1875 607.938 70.7708 607.812 70.4375C607.521 70.4792 607.167 70.5 606.75 70.5H606.062C597.229 70.5 590.167 68.75 584.875 65.25C578.875 61.2917 575.875 55.7083 575.875 48.5C575.875 41.2917 578.562 35.4583 583.938 31C589.896 26.0833 598.083 23.625 608.5 23.625C613.625 23.625 618.396 24.1667 622.812 25.25C627.271 26.3333 631.083 27.7708 634.25 29.5625C635.042 31.2708 635.438 33.7917 635.438 37.125C635.438 42.2083 634.042 46.1042 631.25 48.8125C629.125 47.6458 626.521 46.6875 623.438 45.9375C620.396 45.1458 617.646 44.75 615.188 44.75C612.729 44.75 611.188 44.8333 610.562 45Z" fill="#91CB91"/>
<path d="M34.9375 52.0625H29.9375V54.5625L31.9375 56.0625L34.9375 52.0625ZM38.25 40.3125L33.7779 42.5486L33.8637 42.7203L33.9625 42.885L38.25 40.3125ZM34.875 39.5625L32.3943 35.2213L29.2653 37.0093L29.9721 40.5431L34.875 39.5625ZM36.5 80.3125H41.5V75.6124L36.8089 75.3221L36.5 80.3125ZM36.5 89.875L39.718 93.7018L41.5 92.2033V89.875H36.5ZM28.75 93.6875L30.1315 98.4928L30.1592 98.4849L30.1867 98.4766L28.75 93.6875ZM5.625 92.125L3.01774 96.3914L3.0287 96.3981L5.625 92.125ZM2.6875 18.8125L-0.253358 14.7688L-0.275545 14.785L-0.297554 14.8013L2.6875 18.8125ZM10.25 15.1875L11.8496 19.9247L11.8569 19.9222L10.25 15.1875ZM64.0625 69.3125L67.3247 73.1017L67.3374 73.0908L67.3499 73.0798L64.0625 69.3125ZM29.6875 76.5625L28.6254 81.4484L28.6661 81.4572L28.7069 81.4654L29.6875 76.5625ZM23.875 74.9375L25.9583 70.3922L22.7978 68.9436L20.3395 71.402L23.875 74.9375ZM31.9375 56.0625C32.6666 56.6093 33.3784 56.845 33.727 56.9463C34.1328 57.0641 34.5019 57.1255 34.7752 57.1611C35.3207 57.2323 35.8806 57.25 36.375 57.25V47.25C36.0778 47.25 36.0022 47.2365 36.0686 47.2451C36.1023 47.2495 36.2708 47.2719 36.5151 47.3428C36.6425 47.3798 36.8307 47.4415 37.0543 47.5414C37.2723 47.6388 37.5895 47.8015 37.9375 48.0625L31.9375 56.0625ZM36.375 57.25C38.7308 57.25 40.9456 56.1892 42.3478 54.086L34.0272 48.539C34.2386 48.222 34.5982 47.8469 35.1248 47.5745C35.6407 47.3077 36.1026 47.25 36.375 47.25V57.25ZM42.3478 54.086C43.6148 52.1854 43.8125 49.9104 43.8125 48.25H33.8125C33.8125 48.4837 33.8038 48.6694 33.7916 48.8125C33.7793 48.9566 33.7647 49.0419 33.7572 49.0783C33.7495 49.116 33.7536 49.0815 33.7866 48.9945C33.8197 48.9075 33.8911 48.7431 34.0272 48.539L42.3478 54.086ZM43.8125 48.25V43.5H33.8125V48.25H43.8125ZM43.8125 43.5C43.8125 41.8676 43.6596 39.6103 42.5375 37.74L33.9625 42.885C33.8329 42.6689 33.7735 42.5069 33.7527 42.4444C33.7312 42.3799 33.7351 42.374 33.748 42.4471C33.7758 42.6049 33.8125 42.9378 33.8125 43.5H43.8125ZM42.7221 38.0764C42.1642 36.9605 41.2844 35.9306 40.0432 35.2213C38.8346 34.5307 37.5798 34.3125 36.5 34.3125V44.3125C36.2535 44.3125 35.707 44.261 35.0818 43.9037C34.4239 43.5278 34.0025 42.9978 33.7779 42.5486L42.7221 38.0764ZM36.5 34.3125C35.9511 34.3125 35.3457 34.3399 34.7397 34.4331C34.1969 34.5167 33.3021 34.7025 32.3943 35.2213L37.3557 43.9037C37.0187 44.0963 36.7366 44.1945 36.5774 44.2423C36.4116 44.292 36.2978 44.3111 36.2603 44.3169C36.196 44.3268 36.2573 44.3125 36.5 44.3125V34.3125ZM29.9721 40.5431C29.9587 40.4763 29.9499 40.4222 29.9442 40.384C29.9384 40.3454 29.9349 40.3162 29.9329 40.2982C29.9292 40.2643 29.9292 40.2552 29.9305 40.278C29.9318 40.2992 29.9336 40.3387 29.9351 40.3993C29.9365 40.4593 29.9375 40.534 29.9375 40.625H39.9375C39.9375 40.1172 39.926 39.3225 39.7779 38.5819L29.9721 40.5431ZM29.9375 40.625V52.0625H39.9375V40.625H29.9375ZM31.5 80.3125V89.875H41.5V80.3125H31.5ZM33.282 86.0482C32.151 86.9993 30.2651 88.0128 27.3133 88.8984L30.1867 98.4766C33.9016 97.3622 37.1824 95.834 39.718 93.7018L33.282 86.0482ZM27.3685 88.8822C24.5042 89.7056 21.4913 90.125 18.3125 90.125V100.125C22.3837 100.125 26.3291 99.586 30.1315 98.4928L27.3685 88.8822ZM18.3125 90.125C13.7585 90.125 10.5067 89.2405 8.2213 87.8519L3.0287 96.3981C7.32667 99.0095 12.5332 100.125 18.3125 100.125V90.125ZM8.23225 87.8586C5.94267 86.4594 5 84.7489 5 82.1875H-5C-5 88.2927 -2.19267 93.2073 3.01775 96.3914L8.23225 87.8586ZM5 82.1875V22.8125H-5V82.1875H5ZM5 22.8125C5 23.0496 4.95855 23.2533 4.90767 23.4047C4.85898 23.5497 4.8126 23.6151 4.82212 23.6009C4.83307 23.5846 4.89139 23.5027 5.03347 23.3618C5.17502 23.2213 5.38154 23.0402 5.67255 22.8237L-0.297554 14.8013C-2.50981 16.4477 -5 19.0785 -5 22.8125H5ZM5.62836 22.8562C6.90372 21.9286 8.90858 20.9178 11.8496 19.9247L8.65042 10.4503C5.17475 11.6239 2.13795 13.0297 -0.253358 14.7688L5.62836 22.8562ZM11.8569 19.9222C18.1162 17.7979 25.4114 16.6875 33.8125 16.6875V6.6875C24.547 6.6875 16.1338 7.91045 8.64306 10.4528L11.8569 19.9222ZM33.8125 16.6875C45.1926 16.6875 53.671 19.5117 59.7861 24.6428L66.2139 16.9822C57.829 9.94667 46.849 6.6875 33.8125 6.6875V16.6875ZM59.7861 24.6428C65.7962 29.6857 68.875 36.4146 68.875 45.375H78.875C78.875 33.752 74.7038 24.106 66.2139 16.9822L59.7861 24.6428ZM68.875 45.375C68.875 54.4677 66.0296 60.96 60.7751 65.5452L67.3499 73.0798C75.1787 66.2483 78.875 56.7823 78.875 45.375H68.875ZM60.8003 65.5233C55.6882 69.9244 48.2606 72.4375 37.875 72.4375V82.4375C49.8227 82.4375 59.8534 79.5339 67.3247 73.1017L60.8003 65.5233ZM37.875 72.4375C35.7126 72.4375 33.3149 72.189 30.6681 71.6596L28.7069 81.4654C31.8934 82.1027 34.9541 82.4375 37.875 82.4375V72.4375ZM30.7496 71.6766C27.8298 71.0419 26.3991 70.5942 25.9583 70.3922L21.7917 79.4828C23.3509 80.1974 25.7952 80.8331 28.6254 81.4484L30.7496 71.6766ZM20.3395 71.402C18.8563 72.8852 18.375 74.7368 18.375 76.3125H28.375C28.375 76.4924 28.3496 76.8259 28.199 77.24C28.0415 77.673 27.7785 78.105 27.4105 78.473L20.3395 71.402ZM18.375 76.3125C18.375 78.8235 19.7528 80.6196 21.0947 81.6803C22.3446 82.6684 23.841 83.2753 25.1986 83.6891C27.9594 84.5304 31.7126 85.0257 36.1911 85.3029L36.8089 75.3221C32.5374 75.0576 29.7281 74.6154 28.1139 74.1234C27.284 73.8705 27.1398 73.7118 27.296 73.8353C27.544 74.0314 28.375 74.864 28.375 76.3125H18.375ZM109 37.75H114V35.9652L112.87 34.5838L109 37.75ZM113.5 74.625L118.403 73.6444L117.98 71.5286L116.15 70.385L113.5 74.625ZM108.562 90.75L105.167 87.0795L105.147 87.0985L105.127 87.1177L108.562 90.75ZM83.5 90.75L80.1944 94.5014L80.2009 94.5071L80.2075 94.5129L83.5 90.75ZM77.1875 33.875L74.26 29.8216L72.1875 31.3184V33.875H77.1875ZM82.375 31.3125L84.6878 35.7454L93.2676 31.269L84.6524 26.8613L82.375 31.3125ZM77.5 26.5625L73.2817 29.2469L73.2929 29.2645L73.3042 29.282L77.5 26.5625ZM80.5 5.6875L77.0301 2.08751L80.5 5.6875ZM105.812 5.8125L102.255 9.32628L102.277 9.3481L102.299 9.36966L105.812 5.8125ZM107.062 29.4375L110.895 32.6486L110.906 32.6359L110.916 32.6232L107.062 29.4375ZM97.625 35.25L96.5811 30.3602L92.625 31.2048V35.25H97.625ZM105.938 35.125L109 31.1729L105.978 28.8304L102.925 31.1341L105.938 35.125ZM104 37.75V62.5H114V37.75H104ZM104 62.5C104 69.1319 105.55 75.5524 110.85 78.865L116.15 70.385C115.45 69.9476 114 68.2848 114 62.5H104ZM108.597 75.6056C108.581 75.5243 108.571 75.4602 108.565 75.419C108.559 75.3768 108.556 75.3465 108.554 75.3309C108.551 75.302 108.552 75.3023 108.554 75.3409C108.556 75.3774 108.558 75.4347 108.56 75.5165C108.561 75.5975 108.562 75.6957 108.562 75.8125H118.562C118.562 75.2807 118.556 74.4079 118.403 73.6444L108.597 75.6056ZM108.562 75.8125V76.9375H118.562V75.8125H108.562ZM108.562 76.9375C108.562 82.1753 107.157 85.239 105.167 87.0795L111.958 94.4205C116.635 90.0944 118.562 83.9497 118.562 76.9375H108.562ZM105.127 87.1177C103.165 88.9733 100.37 90.125 96.1875 90.125V100.125C102.339 100.125 107.793 98.3601 111.998 94.3823L105.127 87.1177ZM96.1875 90.125C92.0717 90.125 89.0731 88.9827 86.7925 86.9871L80.2075 94.5129C84.5935 98.3507 90.0533 100.125 96.1875 100.125V90.125ZM86.8056 86.9986C83.9516 84.4837 82.1875 80.6054 82.1875 74.5H72.1875C72.1875 82.6446 74.6317 89.5996 80.1944 94.5014L86.8056 86.9986ZM82.1875 74.5V33.875H72.1875V74.5H82.1875ZM80.115 37.9284C80.5068 37.6454 80.9329 37.4148 81.405 37.2349L77.845 27.8901C76.5671 28.3769 75.3682 29.0213 74.26 29.8216L80.115 37.9284ZM81.405 37.2349C82.4874 36.8226 83.5824 36.3222 84.6878 35.7454L80.0622 26.8796C79.2509 27.3028 78.5126 27.6357 77.845 27.8901L81.405 37.2349ZM84.6524 26.8613C83.8582 26.4549 82.8306 25.5939 81.6958 23.843L73.3042 29.282C75.0861 32.0311 77.3084 34.3367 80.0976 35.7637L84.6524 26.8613ZM81.7183 23.8781C80.8301 22.4824 80.3125 20.7707 80.3125 18.5625H70.3125C70.3125 22.4376 71.2532 26.0593 73.2817 29.2469L81.7183 23.8781ZM80.3125 18.5625C80.3125 14.5307 81.5856 11.5856 83.9699 9.28749L77.0301 2.08751C72.4977 6.45608 70.3125 12.0943 70.3125 18.5625H80.3125ZM83.9699 9.28749C86.4549 6.89231 89.4229 5.6875 93.1875 5.6875V-4.3125C86.9521 -4.3125 81.4618 -2.18398 77.0301 2.08751L83.9699 9.28749ZM93.1875 5.6875C96.9667 5.6875 99.8706 6.91213 102.255 9.32628L109.37 2.29872C105.004 -2.12046 99.4917 -4.3125 93.1875 -4.3125V5.6875ZM102.299 9.36966C104.696 11.7375 105.938 14.6746 105.938 18.5625H115.938C115.938 12.2004 113.763 6.63751 109.326 2.25534L102.299 9.36966ZM105.938 18.5625C105.938 21.5467 105.037 24.0399 103.209 26.2518L110.916 32.6232C114.254 28.5851 115.938 23.8283 115.938 18.5625H105.938ZM103.23 26.2264C101.316 28.5105 99.1296 29.8161 96.5811 30.3602L98.6689 40.1398C103.537 39.1005 107.642 36.5312 110.895 32.6486L103.23 26.2264ZM92.625 35.25C92.625 36.5363 92.8458 38.4168 94.1034 40.0646C95.5559 41.9679 97.6457 42.625 99.4375 42.625V32.625C99.6751 32.625 100.118 32.6638 100.646 32.8946C101.204 33.1382 101.692 33.5253 102.053 33.9979C102.706 34.854 102.625 35.5471 102.625 35.25H92.625ZM99.4375 42.625C102.938 42.625 106.136 41.2393 108.95 39.1159L102.925 31.1341C101.322 32.344 100.187 32.625 99.4375 32.625V42.625ZM102.875 39.0771C103.675 39.6973 104.276 40.1833 104.699 40.5463C104.91 40.7274 105.054 40.8577 105.144 40.9437C105.25 41.0451 105.221 41.0266 105.13 40.9162L112.87 34.5838C112.062 33.5966 110.533 32.361 109 31.1729L102.875 39.0771ZM124 85.9375L120.387 89.3936L120.398 89.4051L120.409 89.4165L124 85.9375ZM125.312 32.3125L128.651 36.0343L128.652 36.0337L125.312 32.3125ZM171.25 30L168.245 33.9965L168.255 34.0035L168.264 34.0105L171.25 30ZM175.062 59.8125L171.504 56.3001L171.504 56.3005L175.062 59.8125ZM152.25 61.25L149.084 65.1198L149.116 65.1459L149.148 65.1714L152.25 61.25ZM147.375 52.5L152.327 51.809L151.726 47.5H147.375V52.5ZM149.125 62.875L152.401 59.0981L152.379 59.0789L152.357 59.0601L149.125 62.875ZM174.812 64.0625L179.006 61.3395L176.273 57.1314L172.075 59.8786L174.812 64.0625ZM171.062 89.4375L174.245 93.2936L174.25 93.2901L171.062 89.4375ZM149.938 90.9375C140.212 90.9375 132.95 87.9898 127.591 82.4585L120.409 89.4165C127.967 97.2186 137.996 100.938 149.938 100.938V90.9375ZM127.613 82.4814C122.268 76.8934 119.375 69.2515 119.375 59H109.375C109.375 71.2485 112.899 81.5649 120.387 89.3936L127.613 82.4814ZM119.375 59C119.375 48.9374 122.579 41.4825 128.651 36.0343L121.974 28.5907C113.463 36.2259 109.375 46.5626 109.375 59H119.375ZM128.652 36.0337C134.126 31.1214 141.016 28.5625 149.688 28.5625V18.5625C138.859 18.5625 129.499 21.837 121.973 28.5913L128.652 36.0337ZM149.688 28.5625C157.508 28.5625 163.576 30.4856 168.245 33.9965L174.255 26.0035C167.508 20.9311 159.201 18.5625 149.688 18.5625V28.5625ZM168.264 34.0105C172.66 37.2837 174.812 41.5651 174.812 47.375H184.812C184.812 38.5183 181.256 31.2163 174.236 25.9895L168.264 34.0105ZM174.812 47.375C174.812 51.3263 173.626 54.15 171.504 56.3001L178.621 63.3249C182.832 59.0583 184.812 53.5904 184.812 47.375H174.812ZM171.504 56.3005C169.463 58.3687 166.696 59.5625 162.688 59.5625V69.5625C168.929 69.5625 174.412 67.5897 178.621 63.3245L171.504 56.3005ZM162.688 59.5625C159.446 59.5625 157.115 58.7235 155.352 57.3286L149.148 65.1714C152.968 68.1932 157.595 69.5625 162.688 69.5625V59.5625ZM155.416 57.3802C153.66 55.9433 152.657 54.171 152.327 51.809L142.423 53.191C143.093 57.9957 145.34 62.0567 149.084 65.1198L155.416 57.3802ZM147.375 47.5C146.001 47.5 144.067 47.7232 142.372 48.9563C140.38 50.4046 139.625 52.5546 139.625 54.5H149.625C149.625 54.7361 149.584 55.1811 149.342 55.7083C149.088 56.263 148.696 56.7215 148.253 57.0437C147.475 57.6101 146.916 57.5 147.375 57.5V47.5ZM139.625 54.5C139.625 59.4176 142.124 63.4966 145.893 66.6899L152.357 59.0601C150.126 57.17 149.625 55.6657 149.625 54.5H139.625ZM145.849 66.6519C150.326 70.536 155.825 72.375 162 72.375V62.375C157.925 62.375 154.841 61.214 152.401 59.0981L145.849 66.6519ZM162 72.375C167.868 72.375 173.161 71.1184 177.55 68.2464L172.075 59.8786C169.714 61.4233 166.465 62.375 162 62.375V72.375ZM170.619 66.7855C172.079 69.0346 172.938 71.9393 172.938 75.75H182.938C182.938 70.394 181.712 65.5071 179.006 61.3395L170.619 66.7855ZM172.938 75.75C172.938 79.4093 171.46 82.6194 167.875 85.5849L174.25 93.2901C179.832 88.6723 182.938 82.7573 182.938 75.75H172.938ZM167.88 85.5814C163.763 88.9791 157.96 90.9375 149.938 90.9375V100.938C159.582 100.938 167.862 98.5625 174.245 93.2936L167.88 85.5814ZM214 70.5L218.976 70.0106L218.302 63.1602L211.996 65.9192L214 70.5ZM211 71.8125L208.996 67.2317L206 68.5424V71.8125H211ZM212.625 80.75L217.407 79.2889L217.383 79.2098L217.356 79.1316L212.625 80.75ZM216.438 88.75L220.025 92.2324L222.896 89.2748L220.541 85.8925L216.438 88.75ZM188.312 91.8125L191.224 87.7476L191.199 87.7296L191.173 87.7119L188.312 91.8125ZM182.938 8.9375L180.418 4.61861L177.938 6.06565V8.9375H182.938ZM190.125 6.0625L188.846 1.22897L188.837 1.23133L188.828 1.23373L190.125 6.0625ZM210.562 7.75L213.208 3.50721L213.172 3.48456L213.135 3.46254L210.562 7.75ZM212.938 40.125L217.048 42.971L217.408 42.4522L217.627 41.8604L212.938 40.125ZM210.938 42.5L214.547 45.9595L214.583 45.9228L214.617 45.8853L210.938 42.5ZM208.625 45.25L204.529 42.3827L204.48 42.453L204.433 42.5251L208.625 45.25ZM209.312 49.0625L207.076 53.5346L210.189 55.0907L212.729 52.7131L209.312 49.0625ZM216.938 39.125L212.507 36.8069L212.497 36.8272L212.486 36.8476L216.938 39.125ZM222.062 24.875L221.302 19.9331L218.053 20.433L217.224 23.6143L222.062 24.875ZM227.438 24L228.198 28.9419L228.249 28.934L228.299 28.9252L227.438 24ZM245.938 28L242.754 31.8558L242.768 31.8668L242.781 31.8778L245.938 28ZM246.438 53.25L250.133 56.618L250.156 56.5924L250.179 56.5665L246.438 53.25ZM234.75 60.6875L233.107 55.965L222.885 59.5207L232.219 64.9996L234.75 60.6875ZM249.25 65.5L253.629 63.087L252.457 60.9599L250.061 60.5661L249.25 65.5ZM248.25 90.0625L251.852 93.5307L251.867 93.5147L251.882 93.4985L248.25 90.0625ZM220.625 88.5625L216.778 91.7563L216.794 91.776L216.811 91.7955L220.625 88.5625ZM211.996 65.9192L208.996 67.2317L213.004 76.3933L216.004 75.0808L211.996 65.9192ZM206 71.8125C206 75.2518 206.667 78.7813 207.894 82.3684L217.356 79.1316C216.416 76.3853 216 73.9565 216 71.8125H206ZM207.843 82.2111C208.896 85.6581 210.383 88.8052 212.334 91.6075L220.541 85.8925C219.242 84.0281 218.187 81.8419 217.407 79.2889L207.843 82.2111ZM212.85 85.2676C209.881 88.3263 205.574 90.125 199.25 90.125V100.125C207.592 100.125 214.744 97.6737 220.025 92.2324L212.85 85.2676ZM199.25 90.125C195.966 90.125 193.366 89.2815 191.224 87.7476L185.401 95.8775C189.426 98.7601 194.117 100.125 199.25 100.125V90.125ZM191.173 87.7119C188.837 86.0815 187.938 84.2545 187.938 81.875H177.938C177.938 87.7455 180.622 92.5435 185.452 95.9131L191.173 87.7119ZM187.938 81.875V8.9375H177.938V81.875H187.938ZM185.457 13.2564C186.993 12.3604 188.958 11.5534 191.422 10.8913L188.828 1.23373C185.709 2.07158 182.882 3.18129 180.418 4.61861L185.457 13.2564ZM191.404 10.896C193.828 10.2544 196.253 9.9375 198.688 9.9375V-0.0625C195.372 -0.0625 192.088 0.370625 188.846 1.22897L191.404 10.896ZM198.688 9.9375C202.851 9.9375 205.85 10.7536 207.99 12.0375L213.135 3.46254C209.025 0.996418 204.107 -0.0625 198.688 -0.0625V9.9375ZM207.917 11.9928C210.015 13.3012 210.875 14.8756 210.875 17.25H220.875C220.875 11.3744 218.193 6.61549 213.208 3.50721L207.917 11.9928ZM210.875 17.25V23.875H220.875V17.25H210.875ZM210.875 23.875C210.875 28.8135 210.005 33.6432 208.248 38.3896L217.627 41.8604C219.787 36.0235 220.875 30.0198 220.875 23.875H210.875ZM208.827 37.279C208.661 37.5178 208.195 38.0959 207.258 39.1147L214.617 45.8853C215.596 44.8208 216.464 43.8156 217.048 42.971L208.827 37.279ZM207.328 39.0405C206.251 40.164 205.301 41.2803 204.529 42.3827L212.721 48.1173C213.116 47.553 213.707 46.836 214.547 45.9595L207.328 39.0405ZM204.433 42.5251C203.648 43.7318 202.812 45.4299 202.812 47.4375H212.812C212.812 47.8447 212.726 48.1014 212.703 48.1628C212.68 48.2232 212.695 48.1635 212.817 47.9749L204.433 42.5251ZM202.812 47.4375C202.812 51.1764 205.927 52.96 207.076 53.5346L211.549 44.5904C211.339 44.4853 211.547 44.5488 211.862 44.8898C212.23 45.2894 212.812 46.1655 212.812 47.4375H202.812ZM212.729 52.7131C216.356 49.3185 219.266 45.5513 221.389 41.4024L212.486 36.8476C210.942 39.8654 208.769 42.7232 205.896 45.4119L212.729 52.7131ZM221.368 41.4431C223.483 37.3998 225.307 32.2529 226.901 26.1357L217.224 23.6143C215.735 29.3304 214.142 33.6835 212.507 36.8069L221.368 41.4431ZM222.823 29.8169C223.41 29.7265 224.072 29.616 224.806 29.4864L223.069 19.6386C222.386 19.759 221.798 19.8568 221.302 19.9331L222.823 29.8169ZM224.806 29.4864C225.456 29.3718 226.575 29.1915 228.198 28.9419L226.677 19.0581C225.05 19.3085 223.836 19.5032 223.069 19.6386L224.806 29.4864ZM228.299 28.9252C229.084 28.7878 229.707 28.6928 230.183 28.6333C230.419 28.6037 230.603 28.585 230.74 28.5741C230.883 28.5627 230.942 28.5625 230.938 28.5625V18.5625C229.784 18.5625 228.224 18.7863 226.576 19.0748L228.299 28.9252ZM230.938 28.5625C236.632 28.5625 240.355 29.8753 242.754 31.8558L249.121 24.1442C244.353 20.208 238.077 18.5625 230.938 18.5625V28.5625ZM242.781 31.8778C245.061 33.7332 246.312 36.2552 246.312 40.0625H256.312C256.312 33.6198 253.981 28.1001 249.094 24.1222L242.781 31.8778ZM246.312 40.0625C246.312 44.0268 245.095 47.2264 242.696 49.9335L250.179 56.5665C254.28 51.9403 256.312 46.3482 256.312 40.0625H246.312ZM242.742 49.882C240.377 52.4771 237.223 54.5334 233.107 55.965L236.393 65.41C241.86 63.5083 246.498 60.6062 250.133 56.618L242.742 49.882ZM232.219 64.9996C236.726 67.6449 242.188 69.4068 248.439 70.4339L250.061 60.5661C244.645 59.6765 240.441 58.2301 237.281 56.3754L232.219 64.9996ZM244.871 67.913C246.717 71.2635 247.625 74.7884 247.625 78.5625H257.625C257.625 73.0866 256.283 67.9032 253.629 63.087L244.871 67.913ZM247.625 78.5625C247.625 81.9796 246.582 84.5498 244.618 86.6265L251.882 93.4985C255.751 89.4086 257.625 84.3121 257.625 78.5625H247.625ZM244.648 86.5943C242.548 88.7758 239.471 90.125 234.75 90.125V100.125C241.529 100.125 247.452 98.0992 251.852 93.5307L244.648 86.5943ZM234.75 90.125C230.519 90.125 227.203 88.5898 224.439 85.3295L216.811 91.7955C221.464 97.2852 227.564 100.125 234.75 100.125V90.125ZM224.472 85.3687C221.625 81.9392 219.66 76.9681 218.976 70.0106L209.024 70.9894C209.84 79.2819 212.292 86.3525 216.778 91.7563L224.472 85.3687ZM291.75 74.625L296.653 73.6444L296.23 71.5286L294.4 70.385L291.75 74.625ZM287.25 90.5L283.69 86.9886L283.678 87.0009L283.666 87.0132L287.25 90.5ZM261.25 90.5L264.691 86.8727L264.687 86.8682L261.25 90.5ZM255.438 8.9375L252.835 4.66808L250.438 6.12952V8.9375H255.438ZM283.062 8.5625L279.762 12.3183L279.792 12.3448L279.823 12.3708L283.062 8.5625ZM282.25 18.5625V62.5H292.25V18.5625H282.25ZM282.25 62.5C282.25 69.1319 283.8 75.5524 289.1 78.865L294.4 70.385C293.7 69.9476 292.25 68.2848 292.25 62.5H282.25ZM286.847 75.6056C286.831 75.5243 286.821 75.4602 286.815 75.419C286.809 75.3768 286.806 75.3465 286.804 75.3309C286.801 75.302 286.802 75.3023 286.804 75.3409C286.806 75.3774 286.808 75.4347 286.81 75.5165C286.811 75.5975 286.812 75.6957 286.812 75.8125H296.812C296.812 75.2807 296.806 74.4079 296.653 73.6444L286.847 75.6056ZM286.812 75.8125V76.9375H296.812V75.8125H286.812ZM286.812 76.9375C286.812 82.0849 285.507 85.1468 283.69 86.9886L290.81 94.0114C295.076 89.6865 296.812 83.7068 296.812 76.9375H286.812ZM283.666 87.0132C281.859 88.871 279.038 90.125 274.438 90.125V100.125C280.921 100.125 286.641 98.2957 290.834 93.9868L283.666 87.0132ZM274.438 90.125C269.857 90.125 266.804 88.8771 264.691 86.8727L257.809 94.1273C262.196 98.2896 267.934 100.125 274.438 100.125V90.125ZM264.687 86.8682C262.149 84.4671 260.438 80.468 260.438 73.875H250.438C250.438 82.1153 252.601 89.1995 257.813 94.1318L264.687 86.8682ZM260.438 73.875V8.9375H250.438V73.875H260.438ZM258.04 13.2069C261.555 11.0642 265.638 9.9375 270.438 9.9375V-0.0625C263.987 -0.0625 258.07 1.47751 252.835 4.66808L258.04 13.2069ZM270.438 9.9375C275.527 9.9375 278.31 11.0427 279.762 12.3183L286.363 4.80667C282.315 1.24892 276.682 -0.0625 270.438 -0.0625V9.9375ZM279.823 12.3708C281.302 13.6296 282.25 15.4594 282.25 18.5625H292.25C292.25 13.0823 290.406 8.24543 286.302 4.75421L279.823 12.3708ZM302.875 86.3125L306.342 82.7101L306.326 82.6943L306.309 82.6787L302.875 86.3125ZM303.188 33.0625L306.602 36.7149L306.609 36.7082L306.617 36.7014L303.188 33.0625ZM351.812 32.125L348.434 35.8108L348.447 35.823L348.461 35.8351L351.812 32.125ZM353.438 68.4375L350.487 64.4012L350.468 64.4149L350.449 64.4288L353.438 68.4375ZM319.688 69.875L322.266 65.5914L319.381 63.8545L316.688 65.875L319.688 69.875ZM324.125 74.6875L325.742 69.9562L325.688 69.9377L325.634 69.9205L324.125 74.6875ZM346.75 74.8125L348.208 79.5952L348.226 79.5896L348.245 79.5839L346.75 74.8125ZM355.062 71L358.355 67.2371L355.406 64.6565L352.195 66.9038L355.062 71ZM357.438 75.875L352.582 77.0676L352.594 77.1183L352.608 77.1687L357.438 75.875ZM357.812 87.4375L361.042 91.2544L362.272 90.2135L362.663 88.6502L357.812 87.4375ZM347.812 93.3125L346.197 88.5807L346.153 88.5956L346.11 88.6112L347.812 93.3125ZM325.375 52.5625L320.424 51.8676L319.966 55.1278L322.78 56.8364L325.375 52.5625ZM330.188 90.9375C319.603 90.9375 311.861 88.0213 306.342 82.7101L299.408 89.9149C307.223 97.437 317.689 100.938 330.188 100.938V90.9375ZM306.309 82.6787C300.666 77.3447 297.625 69.9316 297.625 59.8125H287.625C287.625 72.11 291.418 82.3637 299.441 89.9463L306.309 82.6787ZM297.625 59.8125C297.625 49.6946 300.742 42.1932 306.602 36.7149L299.773 29.4101C291.549 37.0985 287.625 47.4304 287.625 59.8125H297.625ZM306.617 36.7014C312.079 31.5539 319.032 28.875 327.875 28.875V18.875C316.801 18.875 307.296 22.3211 299.758 29.4236L306.617 36.7014ZM327.875 28.875C336.876 28.875 343.552 31.3354 348.434 35.8108L355.191 28.4392C348.073 21.9146 338.791 18.875 327.875 18.875V28.875ZM348.461 35.8351C353.474 40.3647 355.875 45.755 355.875 52.3125H365.875C365.875 42.87 362.234 34.802 355.164 28.4149L348.461 35.8351ZM355.875 52.3125C355.875 58.1336 353.939 61.8774 350.487 64.4012L356.388 72.4738C362.853 67.7476 365.875 60.7414 365.875 52.3125H355.875ZM350.449 64.4288C347.006 66.9955 341.933 68.5625 334.688 68.5625V78.5625C343.275 78.5625 350.702 76.7128 356.426 72.4462L350.449 64.4288ZM334.688 68.5625C329.462 68.5625 325.403 67.48 322.266 65.5914L317.109 74.1586C322.138 77.1866 328.08 78.5625 334.688 78.5625V68.5625ZM316.688 65.875C314.49 67.5229 314.188 69.9622 314.188 71.25H324.188C324.188 71.3003 324.186 71.6362 324.011 72.115C323.821 72.6396 323.423 73.3237 322.688 73.875L316.688 65.875ZM314.188 71.25C314.188 74.3114 316.228 76.2194 317.565 77.1503C318.995 78.1457 320.784 78.8745 322.616 79.4545L325.634 69.9205C324.941 69.7012 324.4 69.4969 323.99 69.3153C323.571 69.1297 323.357 68.9976 323.279 68.9434C323.187 68.8798 323.379 68.9899 323.617 69.3368C323.888 69.7312 324.188 70.3949 324.188 71.25H314.188ZM322.508 79.4188C326.412 80.7529 330.701 81.375 335.312 81.375V71.375C331.59 71.375 328.422 70.8721 325.742 69.9562L322.508 79.4188ZM335.312 81.375C339.929 81.375 344.243 80.8039 348.208 79.5952L345.292 70.0298C342.423 70.9044 339.112 71.375 335.312 71.375V81.375ZM348.245 79.5839C352.003 78.4067 355.289 76.9444 357.93 75.0962L352.195 66.9038C350.669 67.9723 348.414 69.0516 345.255 70.0411L348.245 79.5839ZM351.77 74.7629C351.623 74.6339 351.709 74.6488 351.911 75.0648C352.108 75.4695 352.347 76.1124 352.582 77.0676L362.293 74.6824C361.643 72.0345 360.544 69.1527 358.355 67.2371L351.77 74.7629ZM352.608 77.1687C353.145 79.1741 353.375 80.8786 353.375 82.3125H363.375C363.375 79.8297 362.98 77.2426 362.267 74.5813L352.608 77.1687ZM353.375 82.3125C353.375 83.9136 353.217 85.2027 352.962 86.2248L362.663 88.6502C363.158 86.6723 363.375 84.5448 363.375 82.3125H353.375ZM354.583 83.6206C351.725 86.0384 348.928 87.6483 346.197 88.5807L349.428 98.0443C353.531 96.6434 357.4 94.3366 361.042 91.2544L354.583 83.6206ZM346.11 88.6112C341.975 90.1084 336.712 90.9375 330.188 90.9375V100.938C337.497 100.938 343.983 100.017 349.515 98.0138L346.11 88.6112ZM329.375 58.625C330.908 58.625 332.973 58.3585 334.744 57.0121C336.775 55.4687 337.5 53.237 337.5 51.25H327.5C327.5 51.1037 327.524 50.7407 327.726 50.2808C327.94 49.7914 328.283 49.3623 328.693 49.0504C329.423 48.4957 329.925 48.625 329.375 48.625V58.625ZM337.5 51.25C337.5 49.0831 336.591 46.8591 334.481 45.4264C332.718 44.2287 330.701 44 329.188 44V54C329.472 54 329.57 54.0257 329.533 54.0172C329.496 54.0089 329.223 53.9436 328.862 53.6986C328.469 53.4312 328.074 53.0173 327.804 52.4684C327.546 51.9419 327.5 51.4899 327.5 51.25H337.5ZM329.188 44C327.171 44 324.957 44.5627 323.164 46.2373C321.426 47.8621 320.69 49.9722 320.424 51.8676L330.326 53.2574C330.394 52.7778 330.46 53.1066 329.992 53.5439C329.764 53.7569 329.518 53.8879 329.322 53.9546C329.144 54.0153 329.078 54 329.188 54V44ZM322.78 56.8364C324.805 58.066 327.053 58.625 329.375 58.625V48.625C328.697 48.625 328.278 48.4757 327.97 48.2886L322.78 56.8364ZM429.062 52.0625H424.062V54.5625L426.062 56.0625L429.062 52.0625ZM432.375 40.3125L427.903 42.5486L427.989 42.7203L428.088 42.885L432.375 40.3125ZM429 39.5625L426.519 35.2213L423.39 37.0093L424.097 40.5431L429 39.5625ZM430.625 80.3125H435.625V75.6124L430.934 75.3221L430.625 80.3125ZM430.625 89.875L433.843 93.7018L435.625 92.2033V89.875H430.625ZM422.875 93.6875L424.257 98.4928L424.284 98.4849L424.312 98.4766L422.875 93.6875ZM399.75 92.125L397.143 96.3914L397.154 96.3981L399.75 92.125ZM396.812 18.8125L393.872 14.7688L393.849 14.785L393.827 14.8013L396.812 18.8125ZM404.375 15.1875L405.975 19.9247L405.982 19.9222L404.375 15.1875ZM458.188 69.3125L461.45 73.1017L461.462 73.0908L461.475 73.0798L458.188 69.3125ZM423.812 76.5625L422.75 81.4484L422.791 81.4572L422.832 81.4654L423.812 76.5625ZM418 74.9375L420.083 70.3922L416.923 68.9436L414.464 71.402L418 74.9375ZM426.062 56.0625C426.792 56.6093 427.503 56.845 427.852 56.9463C428.258 57.0641 428.627 57.1255 428.9 57.1611C429.446 57.2323 430.006 57.25 430.5 57.25V47.25C430.203 47.25 430.127 47.2365 430.194 47.2451C430.227 47.2495 430.396 47.2719 430.64 47.3428C430.767 47.3798 430.956 47.4415 431.179 47.5414C431.397 47.6388 431.715 47.8015 432.062 48.0625L426.062 56.0625ZM430.5 57.25C432.856 57.25 435.071 56.1892 436.473 54.086L428.152 48.539C428.364 48.222 428.723 47.8469 429.25 47.5745C429.766 47.3077 430.228 47.25 430.5 47.25V57.25ZM436.473 54.086C437.74 52.1854 437.938 49.9104 437.938 48.25H427.938C427.938 48.4837 427.929 48.6694 427.917 48.8125C427.904 48.9566 427.89 49.0419 427.882 49.0783C427.875 49.116 427.879 49.0815 427.912 48.9945C427.945 48.9075 428.016 48.7431 428.152 48.539L436.473 54.086ZM437.938 48.25V43.5H427.938V48.25H437.938ZM437.938 43.5C437.938 41.8676 437.785 39.6103 436.662 37.74L428.088 42.885C427.958 42.6689 427.898 42.5069 427.878 42.4444C427.856 42.3799 427.86 42.374 427.873 42.4471C427.901 42.6049 427.938 42.9378 427.938 43.5H437.938ZM436.847 38.0764C436.289 36.9605 435.409 35.9306 434.168 35.2213C432.96 34.5307 431.705 34.3125 430.625 34.3125V44.3125C430.379 44.3125 429.832 44.261 429.207 43.9037C428.549 43.5278 428.127 42.9978 427.903 42.5486L436.847 38.0764ZM430.625 34.3125C430.076 34.3125 429.471 34.3399 428.865 34.4331C428.322 34.5167 427.427 34.7025 426.519 35.2213L431.481 43.9037C431.144 44.0963 430.862 44.1945 430.702 44.2423C430.537 44.292 430.423 44.3111 430.385 44.3169C430.321 44.3268 430.382 44.3125 430.625 44.3125V34.3125ZM424.097 40.5431C424.084 40.4763 424.075 40.4222 424.069 40.384C424.063 40.3454 424.06 40.3162 424.058 40.2982C424.054 40.2643 424.054 40.2552 424.056 40.278C424.057 40.2992 424.059 40.3387 424.06 40.3993C424.062 40.4593 424.062 40.534 424.062 40.625H434.062C434.062 40.1172 434.051 39.3225 433.903 38.5819L424.097 40.5431ZM424.062 40.625V52.0625H434.062V40.625H424.062ZM425.625 80.3125V89.875H435.625V80.3125H425.625ZM427.407 86.0482C426.276 86.9993 424.39 88.0128 421.438 88.8984L424.312 98.4766C428.027 97.3622 431.307 95.834 433.843 93.7018L427.407 86.0482ZM421.493 88.8822C418.629 89.7056 415.616 90.125 412.438 90.125V100.125C416.509 100.125 420.454 99.586 424.257 98.4928L421.493 88.8822ZM412.438 90.125C407.884 90.125 404.632 89.2405 402.346 87.8519L397.154 96.3981C401.452 99.0095 406.658 100.125 412.438 100.125V90.125ZM402.357 87.8586C400.068 86.4594 399.125 84.7489 399.125 82.1875H389.125C389.125 88.2927 391.932 93.2073 397.143 96.3914L402.357 87.8586ZM399.125 82.1875V22.8125H389.125V82.1875H399.125ZM399.125 22.8125C399.125 23.0496 399.084 23.2533 399.033 23.4047C398.984 23.5497 398.938 23.6151 398.947 23.6009C398.958 23.5846 399.016 23.5027 399.158 23.3618C399.3 23.2213 399.507 23.0402 399.798 22.8237L393.827 14.8013C391.615 16.4477 389.125 19.0785 389.125 22.8125H399.125ZM399.753 22.8562C401.029 21.9286 403.034 20.9178 405.975 19.9247L402.775 10.4503C399.3 11.6239 396.263 13.0297 393.872 14.7688L399.753 22.8562ZM405.982 19.9222C412.241 17.7979 419.536 16.6875 427.938 16.6875V6.6875C418.672 6.6875 410.259 7.91045 402.768 10.4528L405.982 19.9222ZM427.938 16.6875C439.318 16.6875 447.796 19.5117 453.911 24.6428L460.339 16.9822C451.954 9.94667 440.974 6.6875 427.938 6.6875V16.6875ZM453.911 24.6428C459.921 29.6857 463 36.4146 463 45.375H473C473 33.752 468.829 24.106 460.339 16.9822L453.911 24.6428ZM463 45.375C463 54.4677 460.155 60.96 454.9 65.5452L461.475 73.0798C469.304 66.2483 473 56.7823 473 45.375H463ZM454.925 65.5233C449.813 69.9244 442.386 72.4375 432 72.4375V82.4375C443.948 82.4375 453.978 79.5339 461.45 73.1017L454.925 65.5233ZM432 72.4375C429.838 72.4375 427.44 72.189 424.793 71.6596L422.832 81.4654C426.018 82.1027 429.079 82.4375 432 82.4375V72.4375ZM424.875 71.6766C421.955 71.0419 420.524 70.5942 420.083 70.3922L415.917 79.4828C417.476 80.1974 419.92 80.8331 422.75 81.4484L424.875 71.6766ZM414.464 71.402C412.981 72.8852 412.5 74.7368 412.5 76.3125H422.5C422.5 76.4924 422.475 76.8259 422.324 77.24C422.166 77.673 421.904 78.105 421.536 78.473L414.464 71.402ZM412.5 76.3125C412.5 78.8235 413.878 80.6196 415.22 81.6803C416.47 82.6684 417.966 83.2753 419.324 83.6891C422.084 84.5304 425.838 85.0257 430.316 85.3029L430.934 75.3221C426.662 75.0576 423.853 74.6154 422.239 74.1234C421.409 73.8705 421.265 73.7118 421.421 73.8353C421.669 74.0314 422.5 74.864 422.5 76.3125H412.5ZM535.562 74.625L540.465 73.6444L540.042 71.5286L538.213 70.385L535.562 74.625ZM530.25 90.75L526.867 87.0678L526.863 87.0723L530.25 90.75ZM504.188 86.375L508.835 84.5298L507.582 81.375H504.188V86.375ZM504.25 92.375L507.053 96.5155L512.067 93.1212L507.786 88.8395L504.25 92.375ZM473.5 88.875L470.118 92.558L470.136 92.574L470.153 92.5898L473.5 88.875ZM473.938 53.8125L470.74 49.9685L470.724 49.9819L470.708 49.9956L473.938 53.8125ZM498.25 48.75L499.204 43.8419L499.094 43.8205L498.983 43.804L498.25 48.75ZM500.688 49.25L499.106 53.9934L503.996 55.6232L505.477 50.6867L500.688 49.25ZM498.125 46L497.123 50.8986L498.125 46ZM474.812 49.25L470.507 51.7919L473.01 56.0328L477.289 53.5937L474.812 49.25ZM472.875 29.4375L470.792 24.8922L469.22 25.6128L468.429 27.1508L472.875 29.4375ZM484.312 25.8125L485.411 30.6903L485.432 30.6856L485.453 30.6807L484.312 25.8125ZM502.188 69.75L505.723 73.2855L505.777 73.232L505.828 73.1768L502.188 69.75ZM503.188 66.125H508.188V61.125H503.188V66.125ZM526.062 63.0625C526.062 66.3659 526.421 69.428 527.364 72.0212L536.761 68.6038C536.371 67.5303 536.062 65.7591 536.062 63.0625H526.062ZM527.364 72.0212C528.415 74.9118 530.307 77.2367 532.912 78.865L538.213 70.385C537.484 69.93 537.044 69.3798 536.761 68.6038L527.364 72.0212ZM530.66 75.6056C530.643 75.5243 530.633 75.4602 530.627 75.419C530.621 75.3768 530.618 75.3465 530.616 75.3309C530.613 75.302 530.614 75.3023 530.616 75.3409C530.618 75.3774 530.62 75.4347 530.622 75.5165C530.624 75.5975 530.625 75.6957 530.625 75.8125H540.625C540.625 75.2807 540.618 74.4079 540.465 73.6444L530.66 75.6056ZM530.625 75.8125V76.9375H540.625V75.8125H530.625ZM530.625 76.9375C530.625 81.7811 529.202 84.9235 526.867 87.0678L533.633 94.4322C538.465 89.9932 540.625 83.9272 540.625 76.9375H530.625ZM526.863 87.0723C524.7 89.064 522.026 90.125 518.5 90.125V100.125C524.307 100.125 529.466 98.2694 533.637 94.4277L526.863 87.0723ZM518.5 90.125C516.161 90.125 514.126 89.5813 512.293 88.5338L507.332 97.2162C510.749 99.1687 514.506 100.125 518.5 100.125V90.125ZM512.293 88.5338C510.661 87.6012 509.545 86.3192 508.835 84.5298L499.54 88.2202C501.08 92.0975 503.714 95.1487 507.332 97.2162L512.293 88.5338ZM504.188 81.375C502.745 81.375 500.738 81.7236 499.111 83.3027C497.457 84.9088 497.062 86.9407 497.062 88.4375H507.062C507.062 88.5593 507.022 89.56 506.076 90.4785C505.157 91.3702 504.213 91.375 504.188 91.375V81.375ZM497.062 88.4375C497.062 91.6401 498.981 94.1775 500.714 95.9105L507.786 88.8395C507.272 88.3256 507.053 87.9993 506.98 87.8687C506.913 87.7473 507.062 87.9613 507.062 88.4375H497.062ZM501.447 88.2345C499.953 89.2456 497.06 90.125 492 90.125V100.125C497.856 100.125 503.13 99.171 507.053 96.5155L501.447 88.2345ZM492 90.125C485.221 90.125 480.348 88.3147 476.847 85.1602L470.153 92.5898C475.902 97.7687 483.363 100.125 492 100.125V90.125ZM476.882 85.192C473.539 82.1226 471.625 77.7239 471.625 71.3125H461.625C461.625 79.9011 464.295 87.2108 470.118 92.558L476.882 85.192ZM471.625 71.3125C471.625 64.9473 473.622 60.6294 477.167 57.6294L470.708 49.9956C464.503 55.2456 461.625 62.5944 461.625 71.3125H471.625ZM477.135 57.6565C480.509 54.8503 485.067 53.25 491.25 53.25V43.25C483.267 43.25 476.283 45.358 470.74 49.9685L477.135 57.6565ZM491.25 53.25C493.437 53.25 495.524 53.4008 497.517 53.696L498.983 43.804C496.476 43.4326 493.897 43.25 491.25 43.25V53.25ZM497.296 53.6581C498.04 53.8029 498.599 53.9136 498.98 53.9918C499.172 54.0313 499.302 54.0588 499.38 54.0762C499.421 54.0852 499.429 54.0874 499.416 54.0842C499.409 54.0826 499.383 54.0762 499.345 54.0659C499.318 54.0586 499.227 54.0336 499.106 53.9934L502.269 44.5066C501.842 44.3644 501.204 44.2398 500.989 44.1957C500.558 44.1072 499.96 43.9888 499.204 43.8419L497.296 53.6581ZM505.477 50.6867C505.68 50.0092 505.875 49.1416 505.875 48.1875H495.875C495.875 47.9841 495.896 47.8494 495.904 47.8029C495.913 47.7536 495.916 47.7543 495.898 47.8133L505.477 50.6867ZM505.875 48.1875C505.875 45.9855 504.84 44.1399 503.3 42.9151C501.964 41.8526 500.403 41.3624 499.127 41.1014L497.123 50.8986C497.68 51.0126 497.494 51.0745 497.075 50.7411C496.826 50.5434 496.498 50.2058 496.241 49.698C495.979 49.1786 495.875 48.647 495.875 48.1875H505.875ZM499.127 41.1014C496.831 40.6318 494.063 40.4375 490.938 40.4375V50.4375C493.729 50.4375 495.752 50.6182 497.123 50.8986L499.127 41.1014ZM490.938 40.4375C483.972 40.4375 477.702 41.8473 472.336 44.9063L477.289 53.5937C480.84 51.5694 485.319 50.4375 490.938 50.4375V40.4375ZM479.118 46.7081C477.654 44.2271 476.75 40.7988 476.75 36.125H466.75C466.75 42.0346 467.888 47.3562 470.507 51.7919L479.118 46.7081ZM476.75 36.125C476.75 33.3638 477.125 32.1067 477.321 31.7242L468.429 27.1508C467.125 29.685 466.75 32.8862 466.75 36.125H476.75ZM474.958 33.9828C477.539 32.8002 480.992 31.6857 485.411 30.6903L483.214 20.9347C478.383 22.0226 474.211 23.3248 470.792 24.8922L474.958 33.9828ZM485.453 30.6807C489.676 29.6915 494.166 29.1875 498.938 29.1875V19.1875C493.459 19.1875 488.199 19.7668 483.172 20.9443L485.453 30.6807ZM498.938 29.1875C508.891 29.1875 515.53 31.3748 519.691 34.9275L526.184 27.3225C519.512 21.6252 510.15 19.1875 498.938 19.1875V29.1875ZM519.691 34.9275C523.778 38.4174 526.062 43.4641 526.062 50.8125H536.062C536.062 41.1609 532.93 33.0826 526.184 27.3225L519.691 34.9275ZM526.062 50.8125V63.0625H536.062V50.8125H526.062ZM498.625 61.125C497.096 61.125 495.016 61.4601 493.302 63.0111C491.492 64.6481 491 66.8013 491 68.5H501C501 68.6153 500.945 69.5811 500.011 70.4264C499.172 71.1858 498.404 71.125 498.625 71.125V61.125ZM491 68.5C491 70.5091 491.767 72.7191 493.805 74.2169C495.556 75.5033 497.577 75.75 499.062 75.75V65.75C498.507 65.75 498.996 65.6217 499.726 66.1581C500.143 66.4644 500.509 66.8992 500.745 67.4185C500.968 67.9098 501 68.312 501 68.5H491ZM499.062 75.75C501.147 75.75 503.738 75.2705 505.723 73.2855L498.652 66.2145C498.966 65.9006 499.266 65.7751 499.382 65.7379C499.475 65.7083 499.398 65.75 499.062 65.75V75.75ZM505.828 73.1768C507.827 71.0533 508.188 68.2251 508.188 66.125H498.188C498.188 66.3923 498.174 66.5962 498.157 66.7448C498.14 66.8943 498.121 66.9685 498.118 66.9829C498.107 67.0223 498.184 66.7081 498.547 66.3232L505.828 73.1768ZM503.188 66.125C503.188 61.125 503.188 61.125 503.187 61.125H503.187C503.187 61.125 503.187 61.125 503.187 61.125C503.187 61.125 503.187 61.125 503.187 61.125C503.187 61.125 503.187 61.125 503.187 61.125C503.187 61.125 503.187 61.125 503.187 61.125C503.187 61.125 503.187 61.125 503.187 61.125C503.187 61.125 503.186 61.125 503.186 61.125C503.186 61.125 503.186 61.125 503.186 61.125C503.186 61.125 503.186 61.125 503.186 61.125C503.186 61.125 503.186 61.125 503.185 61.125C503.185 61.125 503.185 61.125 503.185 61.125C503.185 61.125 503.185 61.125 503.185 61.125C503.184 61.125 503.184 61.125 503.184 61.125C503.184 61.125 503.184 61.125 503.184 61.125C503.183 61.125 503.183 61.125 503.183 61.125C503.183 61.125 503.183 61.125 503.182 61.125C503.182 61.125 503.182 61.125 503.182 61.125C503.182 61.125 503.181 61.125 503.181 61.125C503.181 61.125 503.181 61.125 503.181 61.125C503.18 61.125 503.18 61.125 503.18 61.125C503.18 61.125 503.179 61.125 503.179 61.125C503.179 61.125 503.179 61.125 503.178 61.125C503.178 61.125 503.178 61.125 503.177 61.125C503.177 61.125 503.177 61.125 503.177 61.125C503.176 61.125 503.176 61.125 503.176 61.125C503.175 61.125 503.175 61.125 503.175 61.125C503.174 61.125 503.174 61.125 503.174 61.125C503.174 61.125 503.173 61.125 503.173 61.125C503.173 61.125 503.172 61.125 503.172 61.125C503.171 61.125 503.171 61.125 503.171 61.125C503.17 61.125 503.17 61.125 503.17 61.125C503.169 61.125 503.169 61.125 503.169 61.125C503.168 61.125 503.168 61.125 503.167 61.125C503.167 61.125 503.167 61.125 503.166 61.125C503.166 61.125 503.165 61.125 503.165 61.125C503.165 61.125 503.164 61.125 503.164 61.125C503.163 61.125 503.163 61.125 503.162 61.125C503.162 61.125 503.161 61.125 503.161 61.125C503.161 61.125 503.16 61.125 503.16 61.125C503.159 61.125 503.159 61.125 503.158 61.125C503.158 61.125 503.157 61.125 503.157 61.125C503.156 61.125 503.156 61.125 503.155 61.125C503.155 61.125 503.154 61.125 503.154 61.125C503.153 61.125 503.153 61.125 503.152 61.125C503.152 61.125 503.151 61.125 503.151 61.125C503.15 61.125 503.15 61.125 503.149 61.125C503.148 61.125 503.148 61.125 503.147 61.125C503.147 61.125 503.146 61.125 503.146 61.125C503.145 61.125 503.145 61.125 503.144 61.125C503.143 61.125 503.143 61.125 503.142 61.125C503.142 61.125 503.141 61.125 503.14 61.125C503.14 61.125 503.139 61.125 503.139 61.125C503.138 61.125 503.137 61.125 503.137 61.125C503.136 61.125 503.135 61.125 503.135 61.125C503.134 61.125 503.134 61.125 503.133 61.125C503.132 61.125 503.132 61.125 503.131 61.125C503.13 61.125 503.13 61.125 503.129 61.125C503.128 61.125 503.128 61.125 503.127 61.125C503.126 61.125 503.126 61.125 503.125 61.125C503.124 61.125 503.123 61.125 503.123 61.125C503.122 61.125 503.121 61.125 503.121 61.125C503.12 61.125 503.119 61.125 503.118 61.125C503.118 61.125 503.117 61.125 503.116 61.125C503.115 61.125 503.115 61.125 503.114 61.125C503.113 61.125 503.112 61.125 503.112 61.125C503.111 61.125 503.11 61.125 503.109 61.125C503.109 61.125 503.108 61.125 503.107 61.125C503.106 61.125 503.105 61.125 503.105 61.125C503.104 61.125 503.103 61.125 503.102 61.125C503.101 61.125 503.101 61.125 503.1 61.125C503.099 61.125 503.098 61.125 503.097 61.125C503.096 61.125 503.096 61.125 503.095 61.125C503.094 61.125 503.093 61.125 503.092 61.125C503.091 61.125 503.09 61.125 503.09 61.125C503.089 61.125 503.088 61.125 503.087 61.125C503.086 61.125 503.085 61.125 503.084 61.125C503.083 61.125 503.083 61.125 503.082 61.125C503.081 61.125 503.08 61.125 503.079 61.125C503.078 61.125 503.077 61.125 503.076 61.125C503.075 61.125 503.074 61.125 503.073 61.125C503.072 61.125 503.071 61.125 503.07 61.125C503.07 61.125 503.069 61.125 503.068 61.125C503.067 61.125 503.066 61.125 503.065 61.125C503.064 61.125 503.063 61.125 503.062 61.125C503.061 61.125 503.06 61.125 503.059 61.125C503.058 61.125 503.057 61.125 503.056 61.125C503.055 61.125 503.054 61.125 503.053 61.125C503.052 61.125 503.051 61.125 503.05 61.125C503.049 61.125 503.048 61.125 503.047 61.125C503.045 61.125 503.044 61.125 503.043 61.125C503.042 61.125 503.041 61.125 503.04 61.125C503.039 61.125 503.038 61.125 503.037 61.125C503.036 61.125 503.035 61.125 503.034 61.125C503.033 61.125 503.032 61.125 503.03 61.125C503.029 61.125 503.028 61.125 503.027 61.125C503.026 61.125 503.025 61.125 503.024 61.125C503.023 61.125 503.021 61.125 503.02 61.125C503.019 61.125 503.018 61.125 503.017 61.125C503.016 61.125 503.015 61.125 503.013 61.125C503.012 61.125 503.011 61.125 503.01 61.125C503.009 61.125 503.008 61.125 503.006 61.125C503.005 61.125 503.004 61.125 503.003 61.125C503.002 61.125 503 61.125 502.999 61.125C502.998 61.125 502.997 61.125 502.996 61.125C502.994 61.125 502.993 61.125 502.992 61.125C502.991 61.125 502.989 61.125 502.988 61.125C502.987 61.125 502.986 61.125 502.984 61.125C502.983 61.125 502.982 61.125 502.981 61.125C502.979 61.125 502.978 61.125 502.977 61.125C502.976 61.125 502.974 61.125 502.973 61.125C502.972 61.125 502.97 61.125 502.969 61.125C502.968 61.125 502.967 61.125 502.965 61.125C502.964 61.125 502.963 61.125 502.961 61.125C502.96 61.125 502.959 61.125 502.957 61.125C502.956 61.125 502.955 61.125 502.953 61.125C502.952 61.125 502.951 61.125 502.949 61.125C502.948 61.125 502.947 61.125 502.945 61.125C502.944 61.125 502.942 61.125 502.941 61.125C502.94 61.125 502.938 61.125 502.937 61.125C502.935 61.125 502.934 61.125 502.933 61.125C502.931 61.125 502.93 61.125 502.928 61.125C502.927 61.125 502.926 61.125 502.924 61.125C502.923 61.125 502.921 61.125 502.92 61.125C502.918 61.125 502.917 61.125 502.916 61.125C502.914 61.125 502.913 61.125 502.911 61.125C502.91 61.125 502.908 61.125 502.907 61.125C502.905 61.125 502.904 61.125 502.902 61.125C502.901 61.125 502.899 61.125 502.898 61.125C502.896 61.125 502.895 61.125 502.893 61.125C502.892 61.125 502.89 61.125 502.889 61.125C502.887 61.125 502.886 61.125 502.884 61.125C502.883 61.125 502.881 61.125 502.88 61.125C502.878 61.125 502.877 61.125 502.875 61.125C502.873 61.125 502.872 61.125 502.87 61.125C502.869 61.125 502.867 61.125 502.866 61.125C502.864 61.125 502.862 61.125 502.861 61.125C502.859 61.125 502.858 61.125 502.856 61.125C502.854 61.125 502.853 61.125 502.851 61.125C502.85 61.125 502.848 61.125 502.846 61.125C502.845 61.125 502.843 61.125 502.841 61.125C502.84 61.125 502.838 61.125 502.837 61.125C502.835 61.125 502.833 61.125 502.832 61.125C502.83 61.125 502.828 61.125 502.827 61.125C502.825 61.125 502.823 61.125 502.822 61.125C502.82 61.125 502.818 61.125 502.816 61.125C502.815 61.125 502.813 61.125 502.811 61.125C502.81 61.125 502.808 61.125 502.806 61.125C502.805 61.125 502.803 61.125 502.801 61.125C502.799 61.125 502.798 61.125 502.796 61.125C502.794 61.125 502.792 61.125 502.791 61.125C502.789 61.125 502.787 61.125 502.785 61.125C502.784 61.125 502.782 61.125 502.78 61.125C502.778 61.125 502.777 61.125 502.775 61.125C502.773 61.125 502.771 61.125 502.769 61.125C502.768 61.125 502.766 61.125 502.764 61.125C502.762 61.125 502.76 61.125 502.758 61.125C502.757 61.125 502.755 61.125 502.753 61.125C502.751 61.125 502.749 61.125 502.747 61.125C502.746 61.125 502.744 61.125 502.742 61.125C502.74 61.125 502.738 61.125 502.736 61.125C502.734 61.125 502.733 61.125 502.731 61.125C502.729 61.125 502.727 61.125 502.725 61.125C502.723 61.125 502.721 61.125 502.719 61.125C502.717 61.125 502.716 61.125 502.714 61.125C502.712 61.125 502.71 61.125 502.708 61.125C502.706 61.125 502.704 61.125 502.702 61.125C502.7 61.125 502.698 61.125 502.696 61.125C502.694 61.125 502.692 61.125 502.69 61.125C502.688 61.125 502.686 61.125 502.685 61.125C502.683 61.125 502.681 61.125 502.679 61.125C502.677 61.125 502.675 61.125 502.673 61.125C502.671 61.125 502.669 61.125 502.667 61.125C502.665 61.125 502.663 61.125 502.661 61.125C502.659 61.125 502.657 61.125 502.654 61.125C502.652 61.125 502.65 61.125 502.648 61.125C502.646 61.125 502.644 61.125 502.642 61.125C502.64 61.125 502.638 61.125 502.636 61.125C502.634 61.125 502.632 61.125 502.63 61.125C502.628 61.125 502.626 61.125 502.624 61.125C502.621 61.125 502.619 61.125 502.617 61.125C502.615 61.125 502.613 61.125 502.611 61.125C502.609 61.125 502.607 61.125 502.605 61.125C502.603 61.125 502.6 61.125 502.598 61.125C502.596 61.125 502.594 61.125 502.592 61.125C502.59 61.125 502.588 61.125 502.585 61.125C502.583 61.125 502.581 61.125 502.579 61.125C502.577 61.125 502.575 61.125 502.572 61.125C502.57 61.125 502.568 61.125 502.566 61.125C502.564 61.125 502.561 61.125 502.559 61.125C502.557 61.125 502.555 61.125 502.553 61.125C502.55 61.125 502.548 61.125 502.546 61.125C502.544 61.125 502.541 61.125 502.539 61.125C502.537 61.125 502.535 61.125 502.532 61.125C502.53 61.125 502.528 61.125 502.526 61.125C502.523 61.125 502.521 61.125 502.519 61.125C502.517 61.125 502.514 61.125 502.512 61.125C502.51 61.125 502.507 61.125 502.505 61.125C502.503 61.125 502.501 61.125 502.498 61.125C502.496 61.125 502.494 61.125 502.491 61.125C502.489 61.125 502.487 61.125 502.484 61.125C502.482 61.125 502.48 61.125 502.477 61.125C502.475 61.125 502.473 61.125 502.47 61.125C502.468 61.125 502.466 61.125 502.463 61.125C502.461 61.125 502.458 61.125 502.456 61.125C502.454 61.125 502.451 61.125 502.449 61.125C502.447 61.125 502.444 61.125 502.442 61.125C502.439 61.125 502.437 61.125 502.435 61.125C502.432 61.125 502.43 61.125 502.427 61.125C502.425 61.125 502.422 61.125 502.42 61.125C502.418 61.125 502.415 61.125 502.413 61.125C502.41 61.125 502.408 61.125 502.405 61.125C502.403 61.125 502.4 61.125 502.398 61.125C502.395 61.125 502.393 61.125 502.39 61.125C502.388 61.125 502.385 61.125 502.383 61.125C502.38 61.125 502.378 61.125 502.375 61.125C502.373 61.125 502.37 61.125 502.368 61.125C502.365 61.125 502.363 61.125 502.36 61.125C502.358 61.125 502.355 61.125 502.353 61.125C502.35 61.125 502.348 61.125 502.345 61.125C502.343 61.125 502.34 61.125 502.337 61.125C502.335 61.125 502.332 61.125 502.33 61.125C502.327 61.125 502.325 61.125 502.322 61.125C502.319 61.125 502.317 61.125 502.314 61.125C502.312 61.125 502.309 61.125 502.306 61.125C502.304 61.125 502.301 61.125 502.299 61.125C502.296 61.125 502.293 61.125 502.291 61.125C502.288 61.125 502.285 61.125 502.283 61.125C502.28 61.125 502.277 61.125 502.275 61.125C502.272 61.125 502.269 61.125 502.267 61.125C502.264 61.125 502.261 61.125 502.259 61.125C502.256 61.125 502.253 61.125 502.251 61.125C502.248 61.125 502.245 61.125 502.243 61.125C502.24 61.125 502.237 61.125 502.234 61.125C502.232 61.125 502.229 61.125 502.226 61.125C502.224 61.125 502.221 61.125 502.218 61.125C502.215 61.125 502.213 61.125 502.21 61.125C502.207 61.125 502.204 61.125 502.202 61.125C502.199 61.125 502.196 61.125 502.193 61.125C502.191 61.125 502.188 61.125 502.185 61.125C502.182 61.125 502.179 61.125 502.177 61.125C502.174 61.125 502.171 61.125 502.168 61.125C502.165 61.125 502.163 61.125 502.16 61.125C502.157 61.125 502.154 61.125 502.151 61.125C502.148 61.125 502.146 61.125 502.143 61.125C502.14 61.125 502.137 61.125 502.134 61.125C502.131 61.125 502.129 61.125 502.126 61.125C502.123 61.125 502.12 61.125 502.117 61.125C502.114 61.125 502.111 61.125 502.108 61.125C502.105 61.125 502.103 61.125 502.1 61.125C502.097 61.125 502.094 61.125 502.091 61.125C502.088 61.125 502.085 61.125 502.082 61.125C502.079 61.125 502.076 61.125 502.073 61.125C502.071 61.125 502.068 61.125 502.065 61.125C502.062 61.125 502.059 61.125 502.056 61.125C502.053 61.125 502.05 61.125 502.047 61.125C502.044 61.125 502.041 61.125 502.038 61.125C502.035 61.125 502.032 61.125 502.029 61.125C502.026 61.125 502.023 61.125 502.02 61.125C502.017 61.125 502.014 61.125 502.011 61.125C502.008 61.125 502.005 61.125 502.002 61.125C501.999 61.125 501.996 61.125 501.993 61.125C501.99 61.125 501.987 61.125 501.984 61.125C501.981 61.125 501.978 61.125 501.974 61.125C501.971 61.125 501.968 61.125 501.965 61.125C501.962 61.125 501.959 61.125 501.956 61.125C501.953 61.125 501.95 61.125 501.947 61.125C501.944 61.125 501.941 61.125 501.937 61.125C501.934 61.125 501.931 61.125 501.928 61.125C501.925 61.125 501.922 61.125 501.919 61.125C501.916 61.125 501.912 61.125 501.909 61.125C501.906 61.125 501.903 61.125 501.9 61.125C501.897 61.125 501.894 61.125 501.89 61.125C501.887 61.125 501.884 61.125 501.881 61.125C501.878 61.125 501.874 61.125 501.871 61.125C501.868 61.125 501.865 61.125 501.862 61.125C501.858 61.125 501.855 61.125 501.852 61.125C501.849 61.125 501.846 61.125 501.842 61.125C501.839 61.125 501.836 61.125 501.833 61.125C501.829 61.125 501.826 61.125 501.823 61.125C501.82 61.125 501.816 61.125 501.813 61.125C501.81 61.125 501.807 61.125 501.803 61.125C501.8 61.125 501.797 61.125 501.794 61.125C501.79 61.125 501.787 61.125 501.784 61.125C501.78 61.125 501.777 61.125 501.774 61.125C501.771 61.125 501.767 61.125 501.764 61.125C501.761 61.125 501.757 61.125 501.754 61.125C501.751 61.125 501.747 61.125 501.744 61.125C501.741 61.125 501.737 61.125 501.734 61.125C501.73 61.125 501.727 61.125 501.724 61.125C501.72 61.125 501.717 61.125 501.714 61.125C501.71 61.125 501.707 61.125 501.704 61.125C501.7 61.125 501.697 61.125 501.693 61.125C501.69 61.125 501.687 61.125 501.683 61.125C501.68 61.125 501.676 61.125 501.673 61.125C501.669 61.125 501.666 61.125 501.663 61.125C501.659 61.125 501.656 61.125 501.652 61.125C501.649 61.125 501.645 61.125 501.642 61.125C501.638 61.125 501.635 61.125 501.632 61.125C501.628 61.125 501.625 61.125 501.621 61.125C501.618 61.125 501.614 61.125 501.611 61.125C501.607 61.125 501.604 61.125 501.6 61.125C501.597 61.125 501.593 61.125 501.59 61.125C501.586 61.125 501.583 61.125 501.579 61.125C501.576 61.125 501.572 61.125 501.568 61.125C501.565 61.125 501.561 61.125 501.558 61.125C501.554 61.125 501.551 61.125 501.547 61.125C501.544 61.125 501.54 61.125 501.536 61.125C501.533 61.125 501.529 61.125 501.526 61.125C501.522 61.125 501.519 61.125 501.515 61.125C501.511 61.125 501.508 61.125 501.504 61.125C501.501 61.125 501.497 61.125 501.493 61.125C501.49 61.125 501.486 61.125 501.482 61.125C501.479 61.125 501.475 61.125 501.471 61.125C501.468 61.125 501.464 61.125 501.461 61.125C501.457 61.125 501.453 61.125 501.45 61.125C501.446 61.125 501.442 61.125 501.439 61.125C501.435 61.125 501.431 61.125 501.427 61.125C501.424 61.125 501.42 61.125 501.416 61.125C501.413 61.125 501.409 61.125 501.405 61.125C501.402 61.125 501.398 61.125 501.394 61.125C501.39 61.125 501.387 61.125 501.383 61.125C501.379 61.125 501.375 61.125 501.372 61.125C501.368 61.125 501.364 61.125 501.36 61.125C501.357 61.125 501.353 61.125 501.349 61.125C501.345 61.125 501.342 61.125 501.338 61.125C501.334 61.125 501.33 61.125 501.326 61.125C501.323 61.125 501.319 61.125 501.315 61.125C501.311 61.125 501.307 61.125 501.304 61.125C501.3 61.125 501.296 61.125 501.292 61.125C501.288 61.125 501.284 61.125 501.281 61.125C501.277 61.125 501.273 61.125 501.269 61.125C501.265 61.125 501.261 61.125 501.258 61.125C501.254 61.125 501.25 61.125 501.246 61.125C501.242 61.125 501.238 61.125 501.234 61.125C501.23 61.125 501.227 61.125 501.223 61.125C501.219 61.125 501.215 61.125 501.211 61.125C501.207 61.125 501.203 61.125 501.199 61.125C501.195 61.125 501.191 61.125 501.187 61.125C501.183 61.125 501.179 61.125 501.176 61.125C501.172 61.125 501.168 61.125 501.164 61.125C501.16 61.125 501.156 61.125 501.152 61.125C501.148 61.125 501.144 61.125 501.14 61.125C501.136 61.125 501.132 61.125 501.128 61.125C501.124 61.125 501.12 61.125 501.116 61.125C501.112 61.125 501.108 61.125 501.104 61.125C501.1 61.125 501.096 61.125 501.092 61.125C501.088 61.125 501.084 61.125 501.08 61.125C501.076 61.125 501.072 61.125 501.068 61.125C501.064 61.125 501.06 61.125 501.055 61.125C501.051 61.125 501.047 61.125 501.043 61.125C501.039 61.125 501.035 61.125 501.031 61.125C501.027 61.125 501.023 61.125 501.019 61.125C501.015 61.125 501.011 61.125 501.006 61.125C501.002 61.125 500.998 61.125 500.994 61.125C500.99 61.125 500.986 61.125 500.982 61.125C500.978 61.125 500.973 61.125 500.969 61.125C500.965 61.125 500.961 61.125 500.957 61.125C500.953 61.125 500.949 61.125 500.944 61.125C500.94 61.125 500.936 61.125 500.932 61.125C500.928 61.125 500.924 61.125 500.919 61.125C500.915 61.125 500.911 61.125 500.907 61.125C500.903 61.125 500.898 61.125 500.894 61.125C500.89 61.125 500.886 61.125 500.881 61.125C500.877 61.125 500.873 61.125 500.869 61.125C500.865 61.125 500.86 61.125 500.856 61.125C500.852 61.125 500.848 61.125 500.843 61.125C500.839 61.125 500.835 61.125 500.831 61.125C500.826 61.125 500.822 61.125 500.818 61.125C500.813 61.125 500.809 61.125 500.805 61.125C500.801 61.125 500.796 61.125 500.792 61.125C500.788 61.125 500.783 61.125 500.779 61.125C500.775 61.125 500.77 61.125 500.766 61.125C500.762 61.125 500.757 61.125 500.753 61.125C500.749 61.125 500.744 61.125 500.74 61.125C500.736 61.125 500.731 61.125 500.727 61.125C500.723 61.125 500.718 61.125 500.714 61.125C500.709 61.125 500.705 61.125 500.701 61.125C500.696 61.125 500.692 61.125 500.688 61.125C500.683 61.125 500.679 61.125 500.674 61.125C500.67 61.125 500.665 61.125 500.661 61.125C500.657 61.125 500.652 61.125 500.648 61.125C500.643 61.125 500.639 61.125 500.634 61.125C500.63 61.125 500.626 61.125 500.621 61.125C500.617 61.125 500.612 61.125 500.608 61.125C500.603 61.125 500.599 61.125 500.594 61.125C500.59 61.125 500.585 61.125 500.581 61.125C500.576 61.125 500.572 61.125 500.567 61.125C500.563 61.125 500.558 61.125 500.554 61.125C500.549 61.125 500.545 61.125 500.54 61.125C500.536 61.125 500.531 61.125 500.527 61.125C500.522 61.125 500.518 61.125 500.513 61.125C500.508 61.125 500.504 61.125 500.499 61.125C500.495 61.125 500.49 61.125 500.486 61.125C500.481 61.125 500.477 61.125 500.472 61.125C500.467 61.125 500.463 61.125 500.458 61.125C500.454 61.125 500.449 61.125 500.444 61.125C500.44 61.125 500.435 61.125 500.431 61.125C500.426 61.125 500.421 61.125 500.417 61.125C500.412 61.125 500.407 61.125 500.403 61.125C500.398 61.125 500.393 61.125 500.389 61.125C500.384 61.125 500.38 61.125 500.375 61.125C500.37 61.125 500.366 61.125 500.361 61.125C500.356 61.125 500.351 61.125 500.347 61.125C500.342 61.125 500.337 61.125 500.333 61.125C500.328 61.125 500.323 61.125 500.319 61.125C500.314 61.125 500.309 61.125 500.304 61.125C500.3 61.125 500.295 61.125 500.29 61.125C500.286 61.125 500.281 61.125 500.276 61.125C500.271 61.125 500.267 61.125 500.262 61.125C500.257 61.125 500.252 61.125 500.247 61.125C500.243 61.125 500.238 61.125 500.233 61.125C500.228 61.125 500.224 61.125 500.219 61.125C500.214 61.125 500.209 61.125 500.204 61.125C500.2 61.125 500.195 61.125 500.19 61.125C500.185 61.125 500.18 61.125 500.176 61.125C500.171 61.125 500.166 61.125 500.161 61.125C500.156 61.125 500.151 61.125 500.147 61.125C500.142 61.125 500.137 61.125 500.132 61.125C500.127 61.125 500.122 61.125 500.117 61.125C500.112 61.125 500.108 61.125 500.103 61.125C500.098 61.125 500.093 61.125 500.088 61.125C500.083 61.125 500.078 61.125 500.073 61.125C500.068 61.125 500.064 61.125 500.059 61.125C500.054 61.125 500.049 61.125 500.044 61.125C500.039 61.125 500.034 61.125 500.029 61.125C500.024 61.125 500.019 61.125 500.014 61.125C500.009 61.125 500.004 61.125 499.999 61.125C499.994 61.125 499.989 61.125 499.984 61.125C499.979 61.125 499.974 61.125 499.969 61.125C499.964 61.125 499.959 61.125 499.954 61.125C499.949 61.125 499.944 61.125 499.939 61.125C499.934 61.125 499.929 61.125 499.924 61.125C499.919 61.125 499.914 61.125 499.909 61.125C499.904 61.125 499.899 61.125 499.894 61.125C499.889 61.125 499.884 61.125 499.879 61.125C499.874 61.125 499.869 61.125 499.864 61.125C499.859 61.125 499.854 61.125 499.849 61.125C499.843 61.125 499.838 61.125 499.833 61.125C499.828 61.125 499.823 61.125 499.818 61.125C499.813 61.125 499.808 61.125 499.803 61.125C499.798 61.125 499.792 61.125 499.787 61.125C499.782 61.125 499.777 61.125 499.772 61.125C499.767 61.125 499.762 61.125 499.756 61.125C499.751 61.125 499.746 61.125 499.741 61.125C499.736 61.125 499.731 61.125 499.725 61.125C499.72 61.125 499.715 61.125 499.71 61.125C499.705 61.125 499.7 61.125 499.694 61.125C499.689 61.125 499.684 61.125 499.679 61.125C499.674 61.125 499.668 61.125 499.663 61.125C499.658 61.125 499.653 61.125 499.647 61.125C499.642 61.125 499.637 61.125 499.632 61.125C499.626 61.125 499.621 61.125 499.616 61.125C499.611 61.125 499.605 61.125 499.6 61.125C499.595 61.125 499.59 61.125 499.584 61.125C499.579 61.125 499.574 61.125 499.568 61.125C499.563 61.125 499.558 61.125 499.553 61.125C499.547 61.125 499.542 61.125 499.537 61.125C499.531 61.125 499.526 61.125 499.521 61.125C499.515 61.125 499.51 61.125 499.505 61.125C499.499 61.125 499.494 61.125 499.489 61.125C499.483 61.125 499.478 61.125 499.473 61.125C499.467 61.125 499.462 61.125 499.457 61.125C499.451 61.125 499.446 61.125 499.44 61.125C499.435 61.125 499.43 61.125 499.424 61.125C499.419 61.125 499.413 61.125 499.408 61.125C499.403 61.125 499.397 61.125 499.392 61.125C499.386 61.125 499.381 61.125 499.375 61.125C499.37 61.125 499.365 61.125 499.359 61.125C499.354 61.125 499.348 61.125 499.343 61.125C499.337 61.125 499.332 61.125 499.326 61.125C499.321 61.125 499.316 61.125 499.31 61.125C499.305 61.125 499.299 61.125 499.294 61.125C499.288 61.125 499.283 61.125 499.277 61.125C499.272 61.125 499.266 61.125 499.261 61.125C499.255 61.125 499.25 61.125 499.244 61.125C499.239 61.125 499.233 61.125 499.227 61.125C499.222 61.125 499.216 61.125 499.211 61.125C499.205 61.125 499.2 61.125 499.194 61.125C499.189 61.125 499.183 61.125 499.177 61.125C499.172 61.125 499.166 61.125 499.161 61.125C499.155 61.125 499.15 61.125 499.144 61.125C499.138 61.125 499.133 61.125 499.127 61.125C499.122 61.125 499.116 61.125 499.11 61.125C499.105 61.125 499.099 61.125 499.094 61.125C499.088 61.125 499.082 61.125 499.077 61.125C499.071 61.125 499.065 61.125 499.06 61.125C499.054 61.125 499.048 61.125 499.043 61.125C499.037 61.125 499.031 61.125 499.026 61.125C499.02 61.125 499.014 61.125 499.009 61.125C499.003 61.125 498.997 61.125 498.992 61.125C498.986 61.125 498.98 61.125 498.974 61.125C498.969 61.125 498.963 61.125 498.957 61.125C498.952 61.125 498.946 61.125 498.94 61.125C498.934 61.125 498.929 61.125 498.923 61.125C498.917 61.125 498.911 61.125 498.906 61.125C498.9 61.125 498.894 61.125 498.888 61.125C498.883 61.125 498.877 61.125 498.871 61.125C498.865 61.125 498.86 61.125 498.854 61.125C498.848 61.125 498.842 61.125 498.836 61.125C498.831 61.125 498.825 61.125 498.819 61.125C498.813 61.125 498.807 61.125 498.801 61.125C498.796 61.125 498.79 61.125 498.784 61.125C498.778 61.125 498.772 61.125 498.766 61.125C498.761 61.125 498.755 61.125 498.749 61.125C498.743 61.125 498.737 61.125 498.731 61.125C498.725 61.125 498.72 61.125 498.714 61.125C498.708 61.125 498.702 61.125 498.696 61.125C498.69 61.125 498.684 61.125 498.678 61.125C498.672 61.125 498.667 61.125 498.661 61.125C498.655 61.125 498.649 61.125 498.643 61.125C498.637 61.125 498.631 61.125 498.625 61.125V71.125C498.631 71.125 498.637 71.125 498.643 71.125C498.649 71.125 498.655 71.125 498.661 71.125C498.667 71.125 498.672 71.125 498.678 71.125C498.684 71.125 498.69 71.125 498.696 71.125C498.702 71.125 498.708 71.125 498.714 71.125C498.72 71.125 498.725 71.125 498.731 71.125C498.737 71.125 498.743 71.125 498.749 71.125C498.755 71.125 498.761 71.125 498.766 71.125C498.772 71.125 498.778 71.125 498.784 71.125C498.79 71.125 498.796 71.125 498.801 71.125C498.807 71.125 498.813 71.125 498.819 71.125C498.825 71.125 498.831 71.125 498.836 71.125C498.842 71.125 498.848 71.125 498.854 71.125C498.86 71.125 498.865 71.125 498.871 71.125C498.877 71.125 498.883 71.125 498.888 71.125C498.894 71.125 498.9 71.125 498.906 71.125C498.911 71.125 498.917 71.125 498.923 71.125C498.929 71.125 498.934 71.125 498.94 71.125C498.946 71.125 498.952 71.125 498.957 71.125C498.963 71.125 498.969 71.125 498.974 71.125C498.98 71.125 498.986 71.125 498.992 71.125C498.997 71.125 499.003 71.125 499.009 71.125C499.014 71.125 499.02 71.125 499.026 71.125C499.031 71.125 499.037 71.125 499.043 71.125C499.048 71.125 499.054 71.125 499.06 71.125C499.065 71.125 499.071 71.125 499.077 71.125C499.082 71.125 499.088 71.125 499.094 71.125C499.099 71.125 499.105 71.125 499.11 71.125C499.116 71.125 499.122 71.125 499.127 71.125C499.133 71.125 499.138 71.125 499.144 71.125C499.15 71.125 499.155 71.125 499.161 71.125C499.166 71.125 499.172 71.125 499.177 71.125C499.183 71.125 499.189 71.125 499.194 71.125C499.2 71.125 499.205 71.125 499.211 71.125C499.216 71.125 499.222 71.125 499.227 71.125C499.233 71.125 499.239 71.125 499.244 71.125C499.25 71.125 499.255 71.125 499.261 71.125C499.266 71.125 499.272 71.125 499.277 71.125C499.283 71.125 499.288 71.125 499.294 71.125C499.299 71.125 499.305 71.125 499.31 71.125C499.316 71.125 499.321 71.125 499.326 71.125C499.332 71.125 499.337 71.125 499.343 71.125C499.348 71.125 499.354 71.125 499.359 71.125C499.365 71.125 499.37 71.125 499.375 71.125C499.381 71.125 499.386 71.125 499.392 71.125C499.397 71.125 499.403 71.125 499.408 71.125C499.413 71.125 499.419 71.125 499.424 71.125C499.43 71.125 499.435 71.125 499.44 71.125C499.446 71.125 499.451 71.125 499.457 71.125C499.462 71.125 499.467 71.125 499.473 71.125C499.478 71.125 499.483 71.125 499.489 71.125C499.494 71.125 499.499 71.125 499.505 71.125C499.51 71.125 499.515 71.125 499.521 71.125C499.526 71.125 499.531 71.125 499.537 71.125C499.542 71.125 499.547 71.125 499.553 71.125C499.558 71.125 499.563 71.125 499.568 71.125C499.574 71.125 499.579 71.125 499.584 71.125C499.59 71.125 499.595 71.125 499.6 71.125C499.605 71.125 499.611 71.125 499.616 71.125C499.621 71.125 499.626 71.125 499.632 71.125C499.637 71.125 499.642 71.125 499.647 71.125C499.653 71.125 499.658 71.125 499.663 71.125C499.668 71.125 499.674 71.125 499.679 71.125C499.684 71.125 499.689 71.125 499.694 71.125C499.7 71.125 499.705 71.125 499.71 71.125C499.715 71.125 499.72 71.125 499.725 71.125C499.731 71.125 499.736 71.125 499.741 71.125C499.746 71.125 499.751 71.125 499.756 71.125C499.762 71.125 499.767 71.125 499.772 71.125C499.777 71.125 499.782 71.125 499.787 71.125C499.792 71.125 499.798 71.125 499.803 71.125C499.808 71.125 499.813 71.125 499.818 71.125C499.823 71.125 499.828 71.125 499.833 71.125C499.838 71.125 499.843 71.125 499.849 71.125C499.854 71.125 499.859 71.125 499.864 71.125C499.869 71.125 499.874 71.125 499.879 71.125C499.884 71.125 499.889 71.125 499.894 71.125C499.899 71.125 499.904 71.125 499.909 71.125C499.914 71.125 499.919 71.125 499.924 71.125C499.929 71.125 499.934 71.125 499.939 71.125C499.944 71.125 499.949 71.125 499.954 71.125C499.959 71.125 499.964 71.125 499.969 71.125C499.974 71.125 499.979 71.125 499.984 71.125C499.989 71.125 499.994 71.125 499.999 71.125C500.004 71.125 500.009 71.125 500.014 71.125C500.019 71.125 500.024 71.125 500.029 71.125C500.034 71.125 500.039 71.125 500.044 71.125C500.049 71.125 500.054 71.125 500.059 71.125C500.064 71.125 500.068 71.125 500.073 71.125C500.078 71.125 500.083 71.125 500.088 71.125C500.093 71.125 500.098 71.125 500.103 71.125C500.108 71.125 500.112 71.125 500.117 71.125C500.122 71.125 500.127 71.125 500.132 71.125C500.137 71.125 500.142 71.125 500.147 71.125C500.151 71.125 500.156 71.125 500.161 71.125C500.166 71.125 500.171 71.125 500.176 71.125C500.18 71.125 500.185 71.125 500.19 71.125C500.195 71.125 500.2 71.125 500.204 71.125C500.209 71.125 500.214 71.125 500.219 71.125C500.224 71.125 500.228 71.125 500.233 71.125C500.238 71.125 500.243 71.125 500.247 71.125C500.252 71.125 500.257 71.125 500.262 71.125C500.267 71.125 500.271 71.125 500.276 71.125C500.281 71.125 500.286 71.125 500.29 71.125C500.295 71.125 500.3 71.125 500.304 71.125C500.309 71.125 500.314 71.125 500.319 71.125C500.323 71.125 500.328 71.125 500.333 71.125C500.337 71.125 500.342 71.125 500.347 71.125C500.351 71.125 500.356 71.125 500.361 71.125C500.366 71.125 500.37 71.125 500.375 71.125C500.38 71.125 500.384 71.125 500.389 71.125C500.393 71.125 500.398 71.125 500.403 71.125C500.407 71.125 500.412 71.125 500.417 71.125C500.421 71.125 500.426 71.125 500.431 71.125C500.435 71.125 500.44 71.125 500.444 71.125C500.449 71.125 500.454 71.125 500.458 71.125C500.463 71.125 500.467 71.125 500.472 71.125C500.477 71.125 500.481 71.125 500.486 71.125C500.49 71.125 500.495 71.125 500.499 71.125C500.504 71.125 500.508 71.125 500.513 71.125C500.518 71.125 500.522 71.125 500.527 71.125C500.531 71.125 500.536 71.125 500.54 71.125C500.545 71.125 500.549 71.125 500.554 71.125C500.558 71.125 500.563 71.125 500.567 71.125C500.572 71.125 500.576 71.125 500.581 71.125C500.585 71.125 500.59 71.125 500.594 71.125C500.599 71.125 500.603 71.125 500.608 71.125C500.612 71.125 500.617 71.125 500.621 71.125C500.626 71.125 500.63 71.125 500.634 71.125C500.639 71.125 500.643 71.125 500.648 71.125C500.652 71.125 500.657 71.125 500.661 71.125C500.665 71.125 500.67 71.125 500.674 71.125C500.679 71.125 500.683 71.125 500.688 71.125C500.692 71.125 500.696 71.125 500.701 71.125C500.705 71.125 500.709 71.125 500.714 71.125C500.718 71.125 500.723 71.125 500.727 71.125C500.731 71.125 500.736 71.125 500.74 71.125C500.744 71.125 500.749 71.125 500.753 71.125C500.757 71.125 500.762 71.125 500.766 71.125C500.77 71.125 500.775 71.125 500.779 71.125C500.783 71.125 500.788 71.125 500.792 71.125C500.796 71.125 500.801 71.125 500.805 71.125C500.809 71.125 500.813 71.125 500.818 71.125C500.822 71.125 500.826 71.125 500.831 71.125C500.835 71.125 500.839 71.125 500.843 71.125C500.848 71.125 500.852 71.125 500.856 71.125C500.86 71.125 500.865 71.125 500.869 71.125C500.873 71.125 500.877 71.125 500.881 71.125C500.886 71.125 500.89 71.125 500.894 71.125C500.898 71.125 500.903 71.125 500.907 71.125C500.911 71.125 500.915 71.125 500.919 71.125C500.924 71.125 500.928 71.125 500.932 71.125C500.936 71.125 500.94 71.125 500.944 71.125C500.949 71.125 500.953 71.125 500.957 71.125C500.961 71.125 500.965 71.125 500.969 71.125C500.973 71.125 500.978 71.125 500.982 71.125C500.986 71.125 500.99 71.125 500.994 71.125C500.998 71.125 501.002 71.125 501.006 71.125C501.011 71.125 501.015 71.125 501.019 71.125C501.023 71.125 501.027 71.125 501.031 71.125C501.035 71.125 501.039 71.125 501.043 71.125C501.047 71.125 501.051 71.125 501.055 71.125C501.06 71.125 501.064 71.125 501.068 71.125C501.072 71.125 501.076 71.125 501.08 71.125C501.084 71.125 501.088 71.125 501.092 71.125C501.096 71.125 501.1 71.125 501.104 71.125C501.108 71.125 501.112 71.125 501.116 71.125C501.12 71.125 501.124 71.125 501.128 71.125C501.132 71.125 501.136 71.125 501.14 71.125C501.144 71.125 501.148 71.125 501.152 71.125C501.156 71.125 501.16 71.125 501.164 71.125C501.168 71.125 501.172 71.125 501.176 71.125C501.179 71.125 501.183 71.125 501.187 71.125C501.191 71.125 501.195 71.125 501.199 71.125C501.203 71.125 501.207 71.125 501.211 71.125C501.215 71.125 501.219 71.125 501.223 71.125C501.227 71.125 501.23 71.125 501.234 71.125C501.238 71.125 501.242 71.125 501.246 71.125C501.25 71.125 501.254 71.125 501.258 71.125C501.261 71.125 501.265 71.125 501.269 71.125C501.273 71.125 501.277 71.125 501.281 71.125C501.284 71.125 501.288 71.125 501.292 71.125C501.296 71.125 501.3 71.125 501.304 71.125C501.307 71.125 501.311 71.125 501.315 71.125C501.319 71.125 501.323 71.125 501.326 71.125C501.33 71.125 501.334 71.125 501.338 71.125C501.342 71.125 501.345 71.125 501.349 71.125C501.353 71.125 501.357 71.125 501.36 71.125C501.364 71.125 501.368 71.125 501.372 71.125C501.375 71.125 501.379 71.125 501.383 71.125C501.387 71.125 501.39 71.125 501.394 71.125C501.398 71.125 501.402 71.125 501.405 71.125C501.409 71.125 501.413 71.125 501.416 71.125C501.42 71.125 501.424 71.125 501.427 71.125C501.431 71.125 501.435 71.125 501.439 71.125C501.442 71.125 501.446 71.125 501.45 71.125C501.453 71.125 501.457 71.125 501.461 71.125C501.464 71.125 501.468 71.125 501.471 71.125C501.475 71.125 501.479 71.125 501.482 71.125C501.486 71.125 501.49 71.125 501.493 71.125C501.497 71.125 501.501 71.125 501.504 71.125C501.508 71.125 501.511 71.125 501.515 71.125C501.519 71.125 501.522 71.125 501.526 71.125C501.529 71.125 501.533 71.125 501.536 71.125C501.54 71.125 501.544 71.125 501.547 71.125C501.551 71.125 501.554 71.125 501.558 71.125C501.561 71.125 501.565 71.125 501.568 71.125C501.572 71.125 501.576 71.125 501.579 71.125C501.583 71.125 501.586 71.125 501.59 71.125C501.593 71.125 501.597 71.125 501.6 71.125C501.604 71.125 501.607 71.125 501.611 71.125C501.614 71.125 501.618 71.125 501.621 71.125C501.625 71.125 501.628 71.125 501.632 71.125C501.635 71.125 501.638 71.125 501.642 71.125C501.645 71.125 501.649 71.125 501.652 71.125C501.656 71.125 501.659 71.125 501.663 71.125C501.666 71.125 501.669 71.125 501.673 71.125C501.676 71.125 501.68 71.125 501.683 71.125C501.687 71.125 501.69 71.125 501.693 71.125C501.697 71.125 501.7 71.125 501.704 71.125C501.707 71.125 501.71 71.125 501.714 71.125C501.717 71.125 501.72 71.125 501.724 71.125C501.727 71.125 501.73 71.125 501.734 71.125C501.737 71.125 501.741 71.125 501.744 71.125C501.747 71.125 501.751 71.125 501.754 71.125C501.757 71.125 501.761 71.125 501.764 71.125C501.767 71.125 501.771 71.125 501.774 71.125C501.777 71.125 501.78 71.125 501.784 71.125C501.787 71.125 501.79 71.125 501.794 71.125C501.797 71.125 501.8 71.125 501.803 71.125C501.807 71.125 501.81 71.125 501.813 71.125C501.816 71.125 501.82 71.125 501.823 71.125C501.826 71.125 501.829 71.125 501.833 71.125C501.836 71.125 501.839 71.125 501.842 71.125C501.846 71.125 501.849 71.125 501.852 71.125C501.855 71.125 501.858 71.125 501.862 71.125C501.865 71.125 501.868 71.125 501.871 71.125C501.874 71.125 501.878 71.125 501.881 71.125C501.884 71.125 501.887 71.125 501.89 71.125C501.894 71.125 501.897 71.125 501.9 71.125C501.903 71.125 501.906 71.125 501.909 71.125C501.912 71.125 501.916 71.125 501.919 71.125C501.922 71.125 501.925 71.125 501.928 71.125C501.931 71.125 501.934 71.125 501.937 71.125C501.941 71.125 501.944 71.125 501.947 71.125C501.95 71.125 501.953 71.125 501.956 71.125C501.959 71.125 501.962 71.125 501.965 71.125C501.968 71.125 501.971 71.125 501.974 71.125C501.978 71.125 501.981 71.125 501.984 71.125C501.987 71.125 501.99 71.125 501.993 71.125C501.996 71.125 501.999 71.125 502.002 71.125C502.005 71.125 502.008 71.125 502.011 71.125C502.014 71.125 502.017 71.125 502.02 71.125C502.023 71.125 502.026 71.125 502.029 71.125C502.032 71.125 502.035 71.125 502.038 71.125C502.041 71.125 502.044 71.125 502.047 71.125C502.05 71.125 502.053 71.125 502.056 71.125C502.059 71.125 502.062 71.125 502.065 71.125C502.068 71.125 502.071 71.125 502.073 71.125C502.076 71.125 502.079 71.125 502.082 71.125C502.085 71.125 502.088 71.125 502.091 71.125C502.094 71.125 502.097 71.125 502.1 71.125C502.103 71.125 502.105 71.125 502.108 71.125C502.111 71.125 502.114 71.125 502.117 71.125C502.12 71.125 502.123 71.125 502.126 71.125C502.129 71.125 502.131 71.125 502.134 71.125C502.137 71.125 502.14 71.125 502.143 71.125C502.146 71.125 502.148 71.125 502.151 71.125C502.154 71.125 502.157 71.125 502.16 71.125C502.163 71.125 502.165 71.125 502.168 71.125C502.171 71.125 502.174 71.125 502.177 71.125C502.179 71.125 502.182 71.125 502.185 71.125C502.188 71.125 502.191 71.125 502.193 71.125C502.196 71.125 502.199 71.125 502.202 71.125C502.204 71.125 502.207 71.125 502.21 71.125C502.213 71.125 502.215 71.125 502.218 71.125C502.221 71.125 502.224 71.125 502.226 71.125C502.229 71.125 502.232 71.125 502.234 71.125C502.237 71.125 502.24 71.125 502.243 71.125C502.245 71.125 502.248 71.125 502.251 71.125C502.253 71.125 502.256 71.125 502.259 71.125C502.261 71.125 502.264 71.125 502.267 71.125C502.269 71.125 502.272 71.125 502.275 71.125C502.277 71.125 502.28 71.125 502.283 71.125C502.285 71.125 502.288 71.125 502.291 71.125C502.293 71.125 502.296 71.125 502.299 71.125C502.301 71.125 502.304 71.125 502.306 71.125C502.309 71.125 502.312 71.125 502.314 71.125C502.317 71.125 502.319 71.125 502.322 71.125C502.325 71.125 502.327 71.125 502.33 71.125C502.332 71.125 502.335 71.125 502.337 71.125C502.34 71.125 502.343 71.125 502.345 71.125C502.348 71.125 502.35 71.125 502.353 71.125C502.355 71.125 502.358 71.125 502.36 71.125C502.363 71.125 502.365 71.125 502.368 71.125C502.37 71.125 502.373 71.125 502.375 71.125C502.378 71.125 502.38 71.125 502.383 71.125C502.385 71.125 502.388 71.125 502.39 71.125C502.393 71.125 502.395 71.125 502.398 71.125C502.4 71.125 502.403 71.125 502.405 71.125C502.408 71.125 502.41 71.125 502.413 71.125C502.415 71.125 502.418 71.125 502.42 71.125C502.422 71.125 502.425 71.125 502.427 71.125C502.43 71.125 502.432 71.125 502.435 71.125C502.437 71.125 502.439 71.125 502.442 71.125C502.444 71.125 502.447 71.125 502.449 71.125C502.451 71.125 502.454 71.125 502.456 71.125C502.458 71.125 502.461 71.125 502.463 71.125C502.466 71.125 502.468 71.125 502.47 71.125C502.473 71.125 502.475 71.125 502.477 71.125C502.48 71.125 502.482 71.125 502.484 71.125C502.487 71.125 502.489 71.125 502.491 71.125C502.494 71.125 502.496 71.125 502.498 71.125C502.501 71.125 502.503 71.125 502.505 71.125C502.507 71.125 502.51 71.125 502.512 71.125C502.514 71.125 502.517 71.125 502.519 71.125C502.521 71.125 502.523 71.125 502.526 71.125C502.528 71.125 502.53 71.125 502.532 71.125C502.535 71.125 502.537 71.125 502.539 71.125C502.541 71.125 502.544 71.125 502.546 71.125C502.548 71.125 502.55 71.125 502.553 71.125C502.555 71.125 502.557 71.125 502.559 71.125C502.561 71.125 502.564 71.125 502.566 71.125C502.568 71.125 502.57 71.125 502.572 71.125C502.575 71.125 502.577 71.125 502.579 71.125C502.581 71.125 502.583 71.125 502.585 71.125C502.588 71.125 502.59 71.125 502.592 71.125C502.594 71.125 502.596 71.125 502.598 71.125C502.6 71.125 502.603 71.125 502.605 71.125C502.607 71.125 502.609 71.125 502.611 71.125C502.613 71.125 502.615 71.125 502.617 71.125C502.619 71.125 502.621 71.125 502.624 71.125C502.626 71.125 502.628 71.125 502.63 71.125C502.632 71.125 502.634 71.125 502.636 71.125C502.638 71.125 502.64 71.125 502.642 71.125C502.644 71.125 502.646 71.125 502.648 71.125C502.65 71.125 502.652 71.125 502.654 71.125C502.657 71.125 502.659 71.125 502.661 71.125C502.663 71.125 502.665 71.125 502.667 71.125C502.669 71.125 502.671 71.125 502.673 71.125C502.675 71.125 502.677 71.125 502.679 71.125C502.681 71.125 502.683 71.125 502.685 71.125C502.686 71.125 502.688 71.125 502.69 71.125C502.692 71.125 502.694 71.125 502.696 71.125C502.698 71.125 502.7 71.125 502.702 71.125C502.704 71.125 502.706 71.125 502.708 71.125C502.71 71.125 502.712 71.125 502.714 71.125C502.716 71.125 502.717 71.125 502.719 71.125C502.721 71.125 502.723 71.125 502.725 71.125C502.727 71.125 502.729 71.125 502.731 71.125C502.733 71.125 502.734 71.125 502.736 71.125C502.738 71.125 502.74 71.125 502.742 71.125C502.744 71.125 502.746 71.125 502.747 71.125C502.749 71.125 502.751 71.125 502.753 71.125C502.755 71.125 502.757 71.125 502.758 71.125C502.76 71.125 502.762 71.125 502.764 71.125C502.766 71.125 502.768 71.125 502.769 71.125C502.771 71.125 502.773 71.125 502.775 71.125C502.777 71.125 502.778 71.125 502.78 71.125C502.782 71.125 502.784 71.125 502.785 71.125C502.787 71.125 502.789 71.125 502.791 71.125C502.792 71.125 502.794 71.125 502.796 71.125C502.798 71.125 502.799 71.125 502.801 71.125C502.803 71.125 502.805 71.125 502.806 71.125C502.808 71.125 502.81 71.125 502.811 71.125C502.813 71.125 502.815 71.125 502.816 71.125C502.818 71.125 502.82 71.125 502.822 71.125C502.823 71.125 502.825 71.125 502.827 71.125C502.828 71.125 502.83 71.125 502.832 71.125C502.833 71.125 502.835 71.125 502.837 71.125C502.838 71.125 502.84 71.125 502.841 71.125C502.843 71.125 502.845 71.125 502.846 71.125C502.848 71.125 502.85 71.125 502.851 71.125C502.853 71.125 502.854 71.125 502.856 71.125C502.858 71.125 502.859 71.125 502.861 71.125C502.862 71.125 502.864 71.125 502.866 71.125C502.867 71.125 502.869 71.125 502.87 71.125C502.872 71.125 502.873 71.125 502.875 71.125C502.877 71.125 502.878 71.125 502.88 71.125C502.881 71.125 502.883 71.125 502.884 71.125C502.886 71.125 502.887 71.125 502.889 71.125C502.89 71.125 502.892 71.125 502.893 71.125C502.895 71.125 502.896 71.125 502.898 71.125C502.899 71.125 502.901 71.125 502.902 71.125C502.904 71.125 502.905 71.125 502.907 71.125C502.908 71.125 502.91 71.125 502.911 71.125C502.913 71.125 502.914 71.125 502.916 71.125C502.917 71.125 502.918 71.125 502.92 71.125C502.921 71.125 502.923 71.125 502.924 71.125C502.926 71.125 502.927 71.125 502.928 71.125C502.93 71.125 502.931 71.125 502.933 71.125C502.934 71.125 502.935 71.125 502.937 71.125C502.938 71.125 502.94 71.125 502.941 71.125C502.942 71.125 502.944 71.125 502.945 71.125C502.947 71.125 502.948 71.125 502.949 71.125C502.951 71.125 502.952 71.125 502.953 71.125C502.955 71.125 502.956 71.125 502.957 71.125C502.959 71.125 502.96 71.125 502.961 71.125C502.963 71.125 502.964 71.125 502.965 71.125C502.967 71.125 502.968 71.125 502.969 71.125C502.97 71.125 502.972 71.125 502.973 71.125C502.974 71.125 502.976 71.125 502.977 71.125C502.978 71.125 502.979 71.125 502.981 71.125C502.982 71.125 502.983 71.125 502.984 71.125C502.986 71.125 502.987 71.125 502.988 71.125C502.989 71.125 502.991 71.125 502.992 71.125C502.993 71.125 502.994 71.125 502.996 71.125C502.997 71.125 502.998 71.125 502.999 71.125C503 71.125 503.002 71.125 503.003 71.125C503.004 71.125 503.005 71.125 503.006 71.125C503.008 71.125 503.009 71.125 503.01 71.125C503.011 71.125 503.012 71.125 503.013 71.125C503.015 71.125 503.016 71.125 503.017 71.125C503.018 71.125 503.019 71.125 503.02 71.125C503.021 71.125 503.023 71.125 503.024 71.125C503.025 71.125 503.026 71.125 503.027 71.125C503.028 71.125 503.029 71.125 503.03 71.125C503.032 71.125 503.033 71.125 503.034 71.125C503.035 71.125 503.036 71.125 503.037 71.125C503.038 71.125 503.039 71.125 503.04 71.125C503.041 71.125 503.042 71.125 503.043 71.125C503.044 71.125 503.045 71.125 503.047 71.125C503.048 71.125 503.049 71.125 503.05 71.125C503.051 71.125 503.052 71.125 503.053 71.125C503.054 71.125 503.055 71.125 503.056 71.125C503.057 71.125 503.058 71.125 503.059 71.125C503.06 71.125 503.061 71.125 503.062 71.125C503.063 71.125 503.064 71.125 503.065 71.125C503.066 71.125 503.067 71.125 503.068 71.125C503.069 71.125 503.07 71.125 503.07 71.125C503.071 71.125 503.072 71.125 503.073 71.125C503.074 71.125 503.075 71.125 503.076 71.125C503.077 71.125 503.078 71.125 503.079 71.125C503.08 71.125 503.081 71.125 503.082 71.125C503.083 71.125 503.083 71.125 503.084 71.125C503.085 71.125 503.086 71.125 503.087 71.125C503.088 71.125 503.089 71.125 503.09 71.125C503.09 71.125 503.091 71.125 503.092 71.125C503.093 71.125 503.094 71.125 503.095 71.125C503.096 71.125 503.096 71.125 503.097 71.125C503.098 71.125 503.099 71.125 503.1 71.125C503.101 71.125 503.101 71.125 503.102 71.125C503.103 71.125 503.104 71.125 503.105 71.125C503.105 71.125 503.106 71.125 503.107 71.125C503.108 71.125 503.109 71.125 503.109 71.125C503.11 71.125 503.111 71.125 503.112 71.125C503.112 71.125 503.113 71.125 503.114 71.125C503.115 71.125 503.115 71.125 503.116 71.125C503.117 71.125 503.118 71.125 503.118 71.125C503.119 71.125 503.12 71.125 503.121 71.125C503.121 71.125 503.122 71.125 503.123 71.125C503.123 71.125 503.124 71.125 503.125 71.125C503.126 71.125 503.126 71.125 503.127 71.125C503.128 71.125 503.128 71.125 503.129 71.125C503.13 71.125 503.13 71.125 503.131 71.125C503.132 71.125 503.132 71.125 503.133 71.125C503.134 71.125 503.134 71.125 503.135 71.125C503.135 71.125 503.136 71.125 503.137 71.125C503.137 71.125 503.138 71.125 503.139 71.125C503.139 71.125 503.14 71.125 503.14 71.125C503.141 71.125 503.142 71.125 503.142 71.125C503.143 71.125 503.143 71.125 503.144 71.125C503.145 71.125 503.145 71.125 503.146 71.125C503.146 71.125 503.147 71.125 503.147 71.125C503.148 71.125 503.148 71.125 503.149 71.125C503.15 71.125 503.15 71.125 503.151 71.125C503.151 71.125 503.152 71.125 503.152 71.125C503.153 71.125 503.153 71.125 503.154 71.125C503.154 71.125 503.155 71.125 503.155 71.125C503.156 71.125 503.156 71.125 503.157 71.125C503.157 71.125 503.158 71.125 503.158 71.125C503.159 71.125 503.159 71.125 503.16 71.125C503.16 71.125 503.161 71.125 503.161 71.125C503.161 71.125 503.162 71.125 503.162 71.125C503.163 71.125 503.163 71.125 503.164 71.125C503.164 71.125 503.165 71.125 503.165 71.125C503.165 71.125 503.166 71.125 503.166 71.125C503.167 71.125 503.167 71.125 503.167 71.125C503.168 71.125 503.168 71.125 503.169 71.125C503.169 71.125 503.169 71.125 503.17 71.125C503.17 71.125 503.17 71.125 503.171 71.125C503.171 71.125 503.171 71.125 503.172 71.125C503.172 71.125 503.173 71.125 503.173 71.125C503.173 71.125 503.174 71.125 503.174 71.125C503.174 71.125 503.174 71.125 503.175 71.125C503.175 71.125 503.175 71.125 503.176 71.125C503.176 71.125 503.176 71.125 503.177 71.125C503.177 71.125 503.177 71.125 503.177 71.125C503.178 71.125 503.178 71.125 503.178 71.125C503.179 71.125 503.179 71.125 503.179 71.125C503.179 71.125 503.18 71.125 503.18 71.125C503.18 71.125 503.18 71.125 503.181 71.125C503.181 71.125 503.181 71.125 503.181 71.125C503.181 71.125 503.182 71.125 503.182 71.125C503.182 71.125 503.182 71.125 503.182 71.125C503.183 71.125 503.183 71.125 503.183 71.125C503.183 71.125 503.183 71.125 503.184 71.125C503.184 71.125 503.184 71.125 503.184 71.125C503.184 71.125 503.184 71.125 503.185 71.125C503.185 71.125 503.185 71.125 503.185 71.125C503.185 71.125 503.185 71.125 503.185 71.125C503.186 71.125 503.186 71.125 503.186 71.125C503.186 71.125 503.186 71.125 503.186 71.125C503.186 71.125 503.186 71.125 503.186 71.125C503.186 71.125 503.187 71.125 503.187 71.125C503.187 71.125 503.187 71.125 503.187 71.125C503.187 71.125 503.187 71.125 503.187 71.125C503.187 71.125 503.187 71.125 503.187 71.125C503.187 71.125 503.187 71.125 503.187 71.125C503.187 71.125 503.187 71.125 503.187 71.125H503.187C503.188 71.125 503.188 71.125 503.188 66.125ZM574.5 74.625L579.403 73.6444L578.98 71.5286L577.15 70.385L574.5 74.625ZM570 90.5L566.44 86.9886L566.428 87.0009L566.416 87.0132L570 90.5ZM544 90.5L547.441 86.8727L547.437 86.8682L544 90.5ZM538.188 8.9375L535.585 4.66808L533.188 6.12952V8.9375H538.188ZM565.812 8.5625L562.512 12.3183L562.542 12.3448L562.573 12.3708L565.812 8.5625ZM565 18.5625V62.5H575V18.5625H565ZM565 62.5C565 69.1319 566.55 75.5524 571.85 78.865L577.15 70.385C576.45 69.9476 575 68.2848 575 62.5H565ZM569.597 75.6056C569.581 75.5243 569.571 75.4602 569.565 75.419C569.559 75.3768 569.555 75.3465 569.554 75.3309C569.551 75.302 569.552 75.3023 569.554 75.3409C569.556 75.3774 569.558 75.4347 569.56 75.5165C569.561 75.5975 569.562 75.6957 569.562 75.8125H579.562C579.562 75.2807 579.556 74.4079 579.403 73.6444L569.597 75.6056ZM569.562 75.8125V76.9375H579.562V75.8125H569.562ZM569.562 76.9375C569.562 82.0849 568.257 85.1468 566.44 86.9886L573.56 94.0114C577.826 89.6865 579.562 83.7068 579.562 76.9375H569.562ZM566.416 87.0132C564.609 88.871 561.788 90.125 557.188 90.125V100.125C563.671 100.125 569.391 98.2957 573.584 93.9868L566.416 87.0132ZM557.188 90.125C552.607 90.125 549.554 88.8771 547.441 86.8727L540.559 94.1273C544.946 98.2896 550.684 100.125 557.188 100.125V90.125ZM547.437 86.8682C544.899 84.4671 543.188 80.468 543.188 73.875H533.188C533.188 82.1153 535.351 89.1995 540.563 94.1318L547.437 86.8682ZM543.188 73.875V8.9375H533.188V73.875H543.188ZM540.79 13.2069C544.305 11.0642 548.388 9.9375 553.188 9.9375V-0.0625C546.737 -0.0625 540.82 1.47751 535.585 4.66808L540.79 13.2069ZM553.188 9.9375C558.277 9.9375 561.06 11.0427 562.512 12.3183L569.113 4.80667C565.065 1.24892 559.432 -0.0625 553.188 -0.0625V9.9375ZM562.573 12.3708C564.052 13.6296 565 15.4594 565 18.5625H575C575 13.0823 573.156 8.24543 569.052 4.75421L562.573 12.3708ZM610.562 45L609.274 40.1688L609.183 40.1932L609.092 40.2211L610.562 45ZM609 47.625L605.464 51.1605L607.12 52.8165L609.453 52.6045L609 47.625ZM625.625 49.75L623.958 54.4641L623.987 54.4741L624.016 54.4839L625.625 49.75ZM635.812 56.625L639.69 53.4686L639.676 53.4513L639.662 53.4341L635.812 56.625ZM584.688 91.0625L582.158 95.3755L582.165 95.3796L582.172 95.3837L584.688 91.0625ZM577.875 70.375L582.308 72.6878L582.318 72.6684L582.328 72.6489L577.875 70.375ZM581.25 66.25L584.458 62.4146L581.658 60.0731L578.575 62.0259L581.25 66.25ZM591.188 71.25L589.634 76.0025L589.661 76.0114L589.688 76.02L591.188 71.25ZM607.812 70.4375L612.494 68.6819L611.083 64.9195L607.105 65.4878L607.812 70.4375ZM584.875 65.25L587.633 61.0797L587.628 61.0764L584.875 65.25ZM583.938 31L580.755 27.1435L580.745 27.1516L583.938 31ZM622.812 25.25L621.621 30.1061L621.632 30.1086L622.812 25.25ZM634.25 29.5625L638.787 27.4602L638.111 26.0021L636.712 25.2108L634.25 29.5625ZM631.25 48.8125L628.844 53.1954L632.081 54.9727L634.732 52.4012L631.25 48.8125ZM623.438 45.9375L622.178 50.7763L622.217 50.7864L622.256 50.7958L623.438 45.9375ZM609.092 40.2211C607.938 40.5761 606.583 41.2458 605.513 42.5213C604.384 43.8672 603.938 45.4539 603.938 46.9375H613.938C613.938 47.4628 613.762 48.2474 613.175 48.9474C612.647 49.5772 612.103 49.7573 612.033 49.7789L609.092 40.2211ZM603.938 46.9375V47.25H613.938V46.9375H603.938ZM603.938 47.25C603.938 47.4783 603.946 47.871 604.021 48.322C604.045 48.4637 604.236 49.9321 605.464 51.1605L612.536 44.0895C613.22 44.7744 613.528 45.4846 613.654 45.8225C613.796 46.2012 613.858 46.5127 613.885 46.678C613.939 47.004 613.938 47.23 613.938 47.25H603.938ZM609.453 52.6045C609.697 52.5823 610.132 52.5625 610.812 52.5625V42.5625C609.993 42.5625 609.22 42.5844 608.547 42.6455L609.453 52.6045ZM610.812 52.5625H612.312V42.5625H610.812V52.5625ZM612.312 52.5625C616.543 52.5625 620.413 53.2105 623.958 54.4641L627.292 45.0359C622.587 43.3728 617.582 42.5625 612.312 42.5625V52.5625ZM624.016 54.4839C627.371 55.6247 629.969 57.4108 631.963 59.8159L639.662 53.4341C636.406 49.5059 632.212 46.7086 627.234 45.0161L624.016 54.4839ZM631.935 59.7814C633.999 62.3175 635.188 65.6613 635.188 70.1875H645.188C645.188 63.7971 643.459 58.0992 639.69 53.4686L631.935 59.7814ZM635.188 70.1875C635.188 77.3967 632.783 82.1863 628.407 85.4137L634.343 93.4613C641.717 88.022 645.188 79.9783 645.188 70.1875H635.188ZM628.407 85.4137C623.646 88.9255 616.944 90.9375 607.812 90.9375V100.938C618.348 100.938 627.354 98.6161 634.343 93.4613L628.407 85.4137ZM607.812 90.9375C598.438 90.9375 591.724 89.373 587.203 86.7413L582.172 95.3837C588.818 99.252 597.52 100.938 607.812 100.938V90.9375ZM587.217 86.7495C583.166 84.3737 581.375 81.2218 581.375 76.75H571.375C571.375 84.8615 575.126 91.2513 582.158 95.3755L587.217 86.7495ZM581.375 76.75C581.375 75.1566 581.71 73.8346 582.308 72.6878L573.442 68.0622C572.04 70.7487 571.375 73.6767 571.375 76.75H581.375ZM582.328 72.6489C583.105 71.1271 583.713 70.6084 583.925 70.4741L578.575 62.0259C576.287 63.475 574.645 65.7062 573.422 68.1011L582.328 72.6489ZM578.042 70.0854C581.009 72.5666 584.981 74.4815 589.634 76.0025L592.741 66.4975C588.727 65.1852 586.074 63.7667 584.458 62.4146L578.042 70.0854ZM589.688 76.02C594.578 77.5568 599.711 78.3125 605.062 78.3125V68.3125C600.664 68.3125 596.547 67.6932 592.687 66.48L589.688 76.02ZM605.062 78.3125C606.339 78.3125 608.09 78.1643 609.686 77.2814C610.559 76.7982 611.449 76.0583 612.099 74.979C612.754 73.8913 613 72.736 613 71.6875H603C603 71.1807 603.123 70.4993 603.534 69.8179C603.939 69.1448 604.461 68.7435 604.845 68.5311C605.03 68.4291 605.181 68.3705 605.277 68.3386C605.374 68.3065 605.433 68.2954 605.441 68.2938C605.448 68.2925 605.336 68.3125 605.062 68.3125V78.3125ZM613 71.6875C613 70.8119 612.896 69.7538 612.494 68.6819L603.131 72.1931C603.05 71.9787 603.02 71.8185 603.008 71.7417C602.997 71.6642 603 71.6414 603 71.6875H613ZM607.105 65.4878C607.121 65.4855 607.1 65.4891 607.034 65.493C606.97 65.4968 606.877 65.5 606.75 65.5V75.5C607.315 75.5 607.92 75.4729 608.52 75.3872L607.105 65.4878ZM606.75 65.5H606.062V75.5H606.75V65.5ZM606.062 65.5C597.839 65.5 591.844 63.8648 587.633 61.0797L582.117 69.4203C588.489 73.6352 596.619 75.5 606.062 75.5V65.5ZM587.628 61.0764C583.036 58.0466 580.875 54.0338 580.875 48.5H570.875C570.875 57.3829 574.714 64.5368 582.122 69.4236L587.628 61.0764ZM580.875 48.5C580.875 42.7243 582.942 38.3221 587.13 34.8484L580.745 27.1516C574.183 32.5946 570.875 39.859 570.875 48.5H580.875ZM587.12 34.8565C591.913 30.9013 598.84 28.625 608.5 28.625V18.625C597.327 18.625 587.879 21.2654 580.755 27.1435L587.12 34.8565ZM608.5 28.625C613.273 28.625 617.64 29.1295 621.621 30.1061L624.004 20.3939C619.151 19.2038 613.977 18.625 608.5 18.625V28.625ZM621.632 30.1086C625.753 31.11 629.112 32.4 631.788 33.9142L636.712 25.2108C633.055 23.1416 628.789 21.5567 623.993 20.3914L621.632 30.1086ZM629.713 31.6648C630.049 32.388 630.438 34.0421 630.438 37.125H640.438C640.438 33.5413 640.035 30.1537 638.787 27.4602L629.713 31.6648ZM630.438 37.125C630.438 41.2899 629.317 43.7216 627.768 45.2238L634.732 52.4012C638.766 48.4867 640.438 43.1268 640.438 37.125H630.438ZM633.656 44.4296C631.048 42.9978 628.006 41.903 624.619 41.0792L622.256 50.7958C625.035 51.472 627.202 52.2939 628.844 53.1954L633.656 44.4296ZM624.697 41.0987C621.352 40.2281 618.169 39.75 615.188 39.75V49.75C617.122 49.75 619.44 50.0636 622.178 50.7763L624.697 41.0987ZM615.188 39.75C613.914 39.75 612.815 39.7713 611.918 39.8198C611.145 39.8616 610.138 39.9384 609.274 40.1688L611.851 49.8312C611.667 49.8801 611.607 49.8772 611.776 49.8577C611.915 49.8417 612.135 49.8226 612.457 49.8052C613.102 49.7704 614.003 49.75 615.188 49.75V39.75Z" fill="#212121"/>
</svg>
