<svg width="45" height="45" viewBox="0 0 45 45" fill="none" xmlns="http://www.w3.org/2000/svg">
<path d="M5.625 13.125C5.625 12.1304 6.02009 11.1766 6.72335 10.4733C7.42661 9.77009 8.38044 9.375 9.375 9.375H35.625C36.6196 9.375 37.5734 9.77009 38.2766 10.4733C38.9799 11.1766 39.375 12.1304 39.375 13.125V31.875C39.375 32.8696 38.9799 33.8234 38.2766 34.5266C37.5734 35.2299 36.6196 35.625 35.625 35.625H9.375C8.38044 35.625 7.42661 35.2299 6.72335 34.5266C6.02009 33.8234 5.625 32.8696 5.625 31.875V13.125Z" stroke="#5EB05E" stroke-width="2.5" stroke-linecap="round" stroke-linejoin="round"/>
<path d="M5.625 13.125L22.5 24.375L39.375 13.125" stroke="#5EB05E" stroke-width="2.5" stroke-linecap="round" stroke-linejoin="round"/>
</svg>
