<svg width="45" height="45" viewBox="0 0 45 45" fill="none" xmlns="http://www.w3.org/2000/svg">
<path d="M9.375 35.625H12L28.1719 19.4531L25.5469 16.8281L9.375 33V35.625ZM36.1875 16.7344L28.2188 8.85937L30.8438 6.23438C31.5625 5.51563 32.4456 5.15625 33.4931 5.15625C34.5406 5.15625 35.4231 5.51563 36.1406 6.23438L38.7656 8.85937C39.4844 9.57812 39.8594 10.4456 39.8906 11.4619C39.9219 12.4781 39.5781 13.345 38.8594 14.0625L36.1875 16.7344ZM33.4688 19.5L13.5938 39.375H5.625V31.4062L25.5 11.5312L33.4688 19.5ZM26.8594 18.1406L25.5469 16.8281L28.1719 19.4531L26.8594 18.1406Z" fill="#212121"/>
</svg>
