<svg width="35" height="35" viewBox="0 0 35 35" fill="none" xmlns="http://www.w3.org/2000/svg">
<path d="M30.6248 30.6251L24.2913 24.2915M24.2913 24.2915C25.3746 23.2081 26.234 21.922 26.8204 20.5065C27.4067 19.091 27.7084 17.5739 27.7084 16.0417C27.7084 14.5096 27.4067 12.9925 26.8204 11.577C26.234 10.1615 25.3746 8.87531 24.2913 7.79193C23.2079 6.70855 21.9217 5.84917 20.5062 5.26285C19.0907 4.67653 17.5736 4.37476 16.0415 4.37476C14.5094 4.37476 12.9922 4.67653 11.5767 5.26285C10.1612 5.84917 8.87507 6.70855 7.79169 7.79193C5.60371 9.97991 4.37451 12.9475 4.37451 16.0417C4.37451 19.136 5.60371 22.1035 7.79169 24.2915C9.97967 26.4795 12.9472 27.7087 16.0415 27.7087C19.1358 27.7087 22.1033 26.4795 24.2913 24.2915Z" stroke="#212121" stroke-width="2.5" stroke-linecap="round" stroke-linejoin="round"/>
</svg>
