<svg width="35" height="35" viewBox="0 0 35 35" fill="none" xmlns="http://www.w3.org/2000/svg">
<path d="M34.8488 13.127C34.6654 12.5444 34.3209 12.0306 33.8581 11.6492C33.3953 11.2679 32.8346 11.036 32.2456 10.9823L23.6488 10.2116L20.2855 1.90478C20.0541 1.33988 19.6674 0.858043 19.1737 0.519328C18.6799 0.180613 18.1009 0 17.5088 0C16.9167 0 16.3377 0.180613 15.844 0.519328C15.3502 0.858043 14.9636 1.33988 14.7322 1.90478L11.3644 10.2116L2.76752 10.9823C2.17538 11.0331 1.6109 11.264 1.14492 11.6461C0.678942 12.0282 0.332212 12.5444 0.148238 13.13C-0.0357358 13.7155 -0.0487587 14.3444 0.110803 14.9376C0.270365 15.5308 0.595405 16.062 1.04514 16.4644L7.57873 22.3733L5.61805 31.1647C5.48359 31.7634 5.52236 32.3898 5.72952 32.9657C5.93669 33.5417 6.30305 34.0415 6.78281 34.4028C7.26257 34.7641 7.83445 34.9709 8.42694 34.9971C9.01943 35.0234 9.60625 34.8681 10.114 34.5506L17.5043 29.8985L24.8946 34.5506C25.4023 34.8676 25.989 35.0225 26.5812 34.996C27.1734 34.9695 27.7449 34.7627 28.2244 34.4015C28.7039 34.0402 29.0701 33.5406 29.2772 32.9649C29.4844 32.3893 29.5233 31.7632 29.3891 31.1647L27.4284 22.3733L33.962 16.4644C34.4105 16.0605 34.734 15.5283 34.8917 14.9345C35.0495 14.3408 35.0346 13.712 34.8488 13.127ZM24.7815 19.7893C24.3678 20.1623 24.0601 20.6451 23.8914 21.1857C23.7226 21.7264 23.6992 22.3045 23.8237 22.8579L25.5416 30.5676L19.0653 26.4908C18.595 26.1939 18.055 26.0369 17.5043 26.0369C16.9537 26.0369 16.4136 26.1939 15.9433 26.4908L9.46702 30.5676L11.1849 22.8579C11.3094 22.3045 11.286 21.7264 11.1172 21.1857C10.9485 20.6451 10.6408 20.1623 10.2272 19.7893L4.48236 14.5948L12.0446 13.9164C12.5922 13.8678 13.1164 13.6644 13.5603 13.3285C14.0041 12.9925 14.3505 12.5367 14.5618 12.0109L17.5043 4.74355L20.4468 12.0109C20.6581 12.5367 21.0045 12.9925 21.4484 13.3285C21.8922 13.6644 22.4164 13.8678 22.9641 13.9164L30.5263 14.5948L24.7815 19.7893Z" fill="#212121"/>
</svg>
