<svg width="35" height="35" viewBox="0 0 35 35" fill="none" xmlns="http://www.w3.org/2000/svg">
<g clip-path="url(#clip0_56_204)">
<path d="M17.5 2.28125C14.6878 2.28125 11.9388 3.11517 9.60049 4.67754C7.26223 6.23992 5.43978 8.46058 4.36359 11.0587C3.28741 13.6569 3.00583 16.5158 3.55447 19.2739C4.1031 22.0321 5.4573 24.5656 7.44583 26.5542C9.43436 28.5427 11.9679 29.8969 14.7261 30.4455C17.4842 30.9942 20.3431 30.7126 22.9413 29.6364C25.5394 28.5602 27.7601 26.7378 29.3225 24.3995C30.8848 22.0613 31.7188 19.3122 31.7188 16.5C31.7148 12.7302 30.2155 9.11589 27.5498 6.45022C24.8841 3.78455 21.2698 2.28523 17.5 2.28125ZM17.5 28.5312C15.1205 28.5312 12.7943 27.8256 10.8158 26.5036C8.83727 25.1816 7.2952 23.3026 6.38458 21.1042C5.47396 18.9057 5.2357 16.4867 5.69993 14.1528C6.16416 11.819 7.31003 9.67522 8.99263 7.99262C10.6752 6.31002 12.819 5.16416 15.1528 4.69993C17.4867 4.2357 19.9057 4.47396 22.1042 5.38457C24.3026 6.29519 26.1816 7.83727 27.5036 9.8158C28.8256 11.7943 29.5313 14.1204 29.5313 16.5C29.5276 19.6898 28.2589 22.7479 26.0034 25.0034C23.7479 27.2589 20.6898 28.5276 17.5 28.5312ZM26.25 16.5C26.25 16.7901 26.1348 17.0683 25.9297 17.2734C25.7245 17.4785 25.4463 17.5938 25.1563 17.5938H17.5C17.2099 17.5938 16.9317 17.4785 16.7266 17.2734C16.5215 17.0683 16.4063 16.7901 16.4063 16.5V8.84375C16.4063 8.55367 16.5215 8.27547 16.7266 8.07035C16.9317 7.86523 17.2099 7.75 17.5 7.75C17.7901 7.75 18.0683 7.86523 18.2734 8.07035C18.4785 8.27547 18.5938 8.55367 18.5938 8.84375V15.4062H25.1563C25.4463 15.4062 25.7245 15.5215 25.9297 15.7266C26.1348 15.9317 26.25 16.2099 26.25 16.5Z" fill="black"/>
</g>
<defs>
<clipPath id="clip0_56_204">
<rect width="35" height="35" fill="white"/>
</clipPath>
</defs>
</svg>
